<?xml version="1.0" encoding="utf-8"?><svg viewBox="0 0 38 35" xmlns="http://www.w3.org/2000/svg" xmlns:xlink="http://www.w3.org/1999/xlink"><style>:root>svg{display:none}:root>svg:target{display:block}</style><svg fill="none" viewBox="0 0 35 35" id="act" xmlns="http://www.w3.org/2000/svg"><path d="M30.625 15.604v12.104c0 1.604-1.312 2.917-2.77 2.917H7.291c-1.604 0-2.771-1.313-2.771-2.917v-17.5c0-1.604 1.313-2.917 2.77-2.917h7.876" stroke="currentColor" stroke-width="1.484" stroke-linecap="round" stroke-linejoin="round"/><path d="M26.396 5.104c1.02-1.02 2.625-1.02 3.5 0 1.02 1.021 1.02 2.625 0 3.5l-8.459 8.46c-.291.29-.583.436-1.02.436H17.5v-2.916c0-.438.146-.73.437-1.021l8.459-8.459z" stroke="currentColor" stroke-width="1.5" stroke-miterlimit="10" stroke-linecap="round" stroke-linejoin="round"/><path d="M11.667 17.5H8.75M8.75 23.334h17.5" stroke="currentColor" stroke-width="1.5" stroke-linecap="round" stroke-linejoin="round"/><path d="M28.437 10.208l-3.646-3.5" stroke="currentColor" stroke-width="1.5" stroke-miterlimit="10" stroke-linecap="round" stroke-linejoin="round"/></svg><svg fill="none" viewBox="0 0 27 27" id="balloon" xmlns="http://www.w3.org/2000/svg"><path fill-rule="evenodd" clip-rule="evenodd" d="M13.36 0c.118 0 .506.021.862.048.356.033.91.092 1.24.14.328.043.856.145 1.185.22.328.075.91.247 1.293.376.382.129 1.067.413 1.509.633.447.22 1.072.57 1.4.784.33.21.825.564 1.105.79.28.22.803.697 1.159 1.052.355.36.83.891 1.056 1.186.226.296.544.741.711.994.162.252.42.687.566.966.15.28.382.762.512 1.074.129.311.312.8.41 1.084.09.29.226.848.296 1.235.075.392.183 1.186.247 1.761.114 1.01.114 1.074.027 1.852a31.208 31.208 0 01-.194 1.45c-.059.354-.167.934-.242 1.288-.075.355-.291 1.251-.48 1.987-.188.74-.371 1.573-.41 1.852-.037.28-.07.897-.07 1.37 0 .579.033 1.025.098 1.368.048.28.178.763.28 1.074.102.311.264.698.35.859.086.161.248.413.361.558.108.145.221.296.253.333.038.054.011.113-.247.37l-.415-.203a8.91 8.91 0 00-.981-.382 11.69 11.69 0 00-1.105-.295c-.296-.059-.83-.14-1.185-.172a14.617 14.617 0 00-1.59-.032c-.517.016-1.271.08-1.67.14-.399.064-1.164.236-1.697.386-.534.15-1.261.339-1.617.424-.355.086-.792.178-.97.21-.178.032-.603.091-.943.14-.34.042-.803.08-1.023.08-.221 0-.82-.048-1.32-.107a19.296 19.296 0 01-1.536-.247c-.34-.076-.932-.242-1.32-.37a13.703 13.703 0 01-1.24-.473 16.424 16.424 0 01-1.104-.559 15.728 15.728 0 01-1.105-.687 17.243 17.243 0 01-.997-.757c-.253-.21-.7-.633-1.002-.94a15.155 15.155 0 01-.878-.987c-.189-.236-.48-.634-.652-.886a14.652 14.652 0 01-1.132-2.04c-.124-.28-.307-.752-.41-1.047a15.215 15.215 0 01-.317-1.047c-.07-.28-.178-.79-.237-1.128a17.73 17.73 0 01-.162-1.45 11.577 11.577 0 01-.005-1.556c.032-.397.091-.977.14-1.289.048-.311.167-.875.264-1.261.097-.387.27-.95.382-1.262.113-.311.394-.94.62-1.396.226-.456.603-1.117.835-1.46.237-.344.625-.865.862-1.155.243-.29.69-.767.997-1.063a14.74 14.74 0 011.019-.89c.253-.2.69-.51.97-.699.28-.182.775-.478 1.104-.644.329-.172.787-.392 1.024-.494.237-.102.695-.274 1.024-.376a21.05 21.05 0 011.131-.327c.296-.07.733-.156.97-.194.237-.037.733-.096 1.105-.134.371-.037.77-.07.889-.075zm-2.344 2.008a14.381 14.381 0 00-1.886.574c-.221.086-.647.28-.943.43-.296.15-.695.37-.89.489-.193.118-.581.386-.861.595a13.9 13.9 0 00-1.073.919c-.307.295-.732.74-.943.993-.21.252-.554.708-.76 1.02-.204.311-.495.805-.646 1.1-.15.296-.377.79-.501 1.101-.119.311-.302.891-.404 1.289a14.726 14.726 0 00-.28 1.369c-.06.418-.092.982-.092 1.61.005.596.038 1.192.092 1.557.043.328.156.891.248 1.262.091.37.253.902.355 1.181.103.28.329.8.501 1.154.173.355.49.913.712 1.235.215.328.544.773.722.994a15.208 15.208 0 001.772 1.75c.205.16.62.456.916.655.297.193.841.504 1.213.687.372.188 1.04.456 1.482.601.447.15 1.061.322 1.374.381.312.06.808.14 1.104.172.329.038.965.054 1.617.032.776-.016 1.25-.059 1.697-.14.34-.064.884-.187 1.212-.273.33-.086.97-.23 1.428-.317a59.85 59.85 0 011.536-.268 52.3 52.3 0 011.643-.215 27.827 27.827 0 011.725-.14c.43-.02.813-.058.851-.085.049-.038.054-.215.032-.73a15.818 15.818 0 01.027-1.574c.038-.488.108-1.213.167-1.61.054-.398.173-1.053.264-1.45.092-.397.248-1.041.35-1.423.103-.38.243-1.014.308-1.396.107-.6.124-.88.124-2.013.005-1.143-.011-1.406-.124-2.013a14.357 14.357 0 00-.302-1.316 13.915 13.915 0 00-.463-1.288c-.162-.37-.442-.94-.63-1.262a12.904 12.904 0 00-.76-1.154 14.862 14.862 0 00-.954-1.122 12.89 12.89 0 00-1.073-.988c-.296-.242-.76-.574-1.023-.752a13.888 13.888 0 00-2.56-1.24 14.887 14.887 0 00-1.131-.322 14.978 14.978 0 00-1.202-.22 12.983 12.983 0 00-1.563-.075c-.506.005-1.169.037-1.465.08a13.26 13.26 0 00-.943.156z" fill="currentColor"/></svg><svg fill="none" viewBox="0 0 25 26" id="calendar" xmlns="http://www.w3.org/2000/svg"><path d="M17.25 1v5M7.25 1v5M1 9.75h22.5M21 3.5H3.5A2.507 2.507 0 001 6v16.25c0 1.375 1.125 2.5 2.5 2.5H21c1.375 0 2.5-1.125 2.5-2.5V6c0-1.375-1.125-2.5-2.5-2.5z" stroke="currentColor" stroke-width="1.5" stroke-miterlimit="10" stroke-linecap="round" stroke-linejoin="round"/><path d="M6 14.375c-.125 0-.25.125-.25.375 0 .125.125.375.375.25.125 0 .25-.125.25-.375 0-.125-.125-.25-.375-.25zM12.25 14.375c-.125 0-.25.125-.25.375 0 .125.125.375.375.25.125 0 .25-.125.25-.375 0-.125-.125-.25-.375-.25zM18.5 14.375c-.125 0-.25.125-.25.375 0 .125.125.375.375.25.125 0 .25-.125.25-.375 0-.125-.125-.25-.375-.25zM6 19.375c-.125 0-.25.125-.25.375 0 .125.125.375.375.25.125 0 .25-.125.25-.375 0-.125-.125-.25-.375-.25zM12.25 19.375c-.125 0-.25.125-.25.375 0 .125.125.375.375.25.125 0 .25-.125.25-.375 0-.125-.125-.25-.375-.25z" stroke="currentColor" stroke-width="1.5" stroke-miterlimit="10" stroke-linecap="round" stroke-linejoin="round"/></svg><svg fill="none" viewBox="0 0 37 35" id="calendar-2" xmlns="http://www.w3.org/2000/svg"><path d="M22.695 4.375v2.917M10.591 4.375v2.917M4.54 11.667h24.207M28.747 14.583V8.75c0-1.604-1.361-2.917-3.026-2.917H7.565c-1.664 0-3.026 1.313-3.026 2.917V24.79c0 1.604 1.362 2.917 3.026 2.917h9.078" stroke="currentColor" stroke-width="1.5" stroke-miterlimit="10" stroke-linecap="round" stroke-linejoin="round"/><path d="M10.591 15.75c-.151 0-.302.146-.302.438 0 .145.15.291.454.291.15 0 .302-.146.302-.437 0-.146-.303-.292-.454-.292zM10.591 21.583c-.151 0-.302.146-.302.438 0 .145.15.291.454.291.15 0 .302-.146.302-.437 0-.146-.303-.292-.454-.292zM16.34 16.042c0 .146.152.292.454.292.152 0 .303-.146.303-.438 0-.146-.151-.292-.454-.292-.151.146-.302.292-.302.438zM26.175 30.187l6.658-6.417c.605-.583.605-1.458 0-2.041l-2.421-2.334a1.5 1.5 0 00-2.118 0l-6.658 6.417c-.302.292-.454.583-.454 1.02v3.793h3.934c.454 0 .757-.146 1.06-.438z" stroke="currentColor" stroke-width="1.5" stroke-miterlimit="10" stroke-linecap="round" stroke-linejoin="round"/></svg><svg fill="none" viewBox="0 0 35 35" id="call" xmlns="http://www.w3.org/2000/svg"><path d="M14.73 20.27c-1.75-1.75-3.063-3.645-3.792-5.54-.146-.438-.146-.876.292-1.168l1.166-1.166c1.021-1.021 1.021-2.334.146-3.209l-1.75-1.75c-1.167-1.166-2.917-1.166-4.083 0l-1.021 1.02a4.847 4.847 0 00-1.313 4.23c.73 3.792 2.917 8.021 6.563 11.521 3.5 3.5 7.73 5.834 11.52 6.563 1.605.291 3.063-.146 4.23-1.313l1.02-1.02c1.167-1.167 1.167-2.917 0-4.084l-1.75-1.75c-.874-.875-2.187-.875-3.062 0l-1.312 1.312c-.292.292-.73.438-1.167.292-2.042-1.02-3.937-2.188-5.687-3.938zM24.792 16.042a6.088 6.088 0 00-1.75-4.23 5.84 5.84 0 00-4.229-1.75M30.77 16.042c0-3.063-1.166-5.98-3.5-8.313-2.333-2.333-5.25-3.5-8.312-3.5" stroke="currentColor" stroke-width="1.5" stroke-miterlimit="10" stroke-linecap="round" stroke-linejoin="round"/></svg><svg fill="none" viewBox="0 0 18 18" id="capacity" xmlns="http://www.w3.org/2000/svg"><path d="M10.875 12.75h-3.75a1.857 1.857 0 01-1.875-1.875v-3.75c0-1.05.825-1.875 1.875-1.875h3.75c1.05 0 1.875.825 1.875 1.875v3.75c0 1.05-.825 1.875-1.875 1.875zM13.5 15.75v-1.5c0-.45.3-.75.75-.75h1.5M4.5 2.25v1.5c0 .45-.3.75-.75.75h-1.5M2.25 13.5h1.5c.45 0 .75.3.75.75v1.5M15.75 4.5h-1.5c-.45 0-.75-.3-.75-.75v-1.5" stroke="currentColor" stroke-miterlimit="10" stroke-linecap="round" stroke-linejoin="round"/></svg><svg fill="none" viewBox="0 0 19 16" id="car" xmlns="http://www.w3.org/2000/svg"><path d="M1 12.395V8.597c0-1.194.956-2.17 2.125-2.17h12.75c1.168 0 2.125.976 2.125 2.17v5.318c0 .65-.425 1.085-1.063 1.085h-2.125c-.637 0-1.062-.434-1.062-1.085v-1.086h-8.5v1.086c0 .65-.425 1.085-1.063 1.085H2.062C1.425 15 1 14.566 1 13.915v-1.52z" stroke="currentColor" stroke-width="1.5" stroke-linecap="round" stroke-linejoin="round"/><path d="M3.125 6.426l.85-3.798A2.057 2.057 0 015.994 1H12.9c.956 0 1.912.76 2.125 1.737l.743 3.798M14.705 9.574H12.58M6.312 9.573H4.187M15.875 6.318L18 5.232M3.125 6.318L1 5.232" stroke="currentColor" stroke-width="1.5" stroke-linecap="round" stroke-linejoin="round"/></svg><svg fill="none" viewBox="0 0 10 6" id="chevron" xmlns="http://www.w3.org/2000/svg"><path d="M1 1l4 4 4-4" stroke="currentColor"/></svg><svg fill="none" viewBox="0 0 10 7" id="chevron-bold" xmlns="http://www.w3.org/2000/svg"><path d="M.813 1.25l4 4 4-4" stroke="currentColor" stroke-width="2"/></svg><svg fill="none" viewBox="0 0 29 29" id="circular-arrows" xmlns="http://www.w3.org/2000/svg"><path d="M28.048 9.365c-.181-.453-.68-.725-1.179-.544-.453.181-.725.68-.544 1.179 1.179 3.174 1.088 6.62-.317 9.704-1.406 3.084-3.9 5.441-7.074 6.62-3.175 1.18-6.62 1.089-9.704-.317a12.892 12.892 0 01-2.993-1.905c.725 0 1.542 0 2.358-.18a.885.885 0 00.725-1.044.885.885 0 00-1.043-.725c-1.632.272-3.22.045-4.126-.136a1.013 1.013 0 00-.952.09c-.091.091-.182.182-.227.318v.045c0 .045-.045.09-.045.136a1.105 1.105 0 000 .544c.226.771.77 2.993.544 4.353-.091.5.272.953.77 1.043h.137c.453 0 .816-.317.907-.77a8.38 8.38 0 000-2.132 16.058 16.058 0 003.22 2.04A14.54 14.54 0 0014.49 29c1.723 0 3.446-.317 5.124-.952 3.627-1.36 6.484-4.081 8.117-7.573 1.541-3.537 1.678-7.482.317-11.11zM2.927 9.275C5.83 2.88 13.357.069 19.705 2.926c1.043.499 2.04 1.088 2.902 1.814-.725 0-1.542 0-2.313.181a.885.885 0 00-.725 1.043.885.885 0 001.043.726c1.768-.318 3.446-.046 4.308.181H25.373c.046 0 .09 0 .09-.045 0 0 .046 0 .046-.045.046 0 .046-.046.091-.046s.045-.045.09-.045h.046l.045-.046.046-.045c.045-.045.09-.136.136-.181.045-.046.045-.136.045-.182v-.045V5.964c0-.09 0-.136-.045-.226-.227-.726-.771-2.993-.544-4.354.09-.498-.273-.952-.771-1.043-.5-.09-.953.272-1.043.771-.09.68-.09 1.406 0 2.132-.953-.771-1.995-1.406-3.13-1.95-7.3-3.31-15.916-.046-19.18 7.255-1.588 3.537-1.724 7.482-.363 11.11a.93.93 0 00.861.59c.091 0 .227 0 .318-.046.453-.181.725-.68.544-1.18-1.224-3.219-1.134-6.665.272-9.748z" fill="currentColor"/><path d="M11.407 24.964c.998.272 1.995.454 3.038.454 4.217 0 8.208-2.449 9.976-6.44 1.225-2.675 1.315-5.622.272-8.343a.626.626 0 00-.77-.363.626.626 0 00-.363.771 9.82 9.82 0 01-.227 7.437c-1.995 4.398-6.938 6.666-11.563 5.35-.318-.09-.68.091-.771.409-.09.317.09.635.408.725zM17.03 5.103c.317.09.634-.09.725-.408a.582.582 0 00-.408-.726C12.132 2.563 6.737 5.103 4.514 10c-1.224 2.675-1.315 5.623-.272 8.344.09.226.318.408.59.408.09 0 .136 0 .226-.045a.626.626 0 00.363-.771 9.82 9.82 0 01.227-7.437A9.613 9.613 0 0117.03 5.103z" fill="currentColor"/></svg><svg fill="none" viewBox="0 0 16 17" id="clock" xmlns="http://www.w3.org/2000/svg"><path d="M13.657 11.343A6.123 6.123 0 102.343 6.657a6.123 6.123 0 0011.314 4.686zM1.406 3.49l2.296-1.914M14.57 3.49l-2.297-1.914" stroke="currentColor" stroke-width="1.5" stroke-miterlimit="10" stroke-linecap="round" stroke-linejoin="round"/><path d="M7.834 6.245v3.214l2.45 1.454" stroke="currentColor" stroke-width="1.5" stroke-miterlimit="10" stroke-linecap="round" stroke-linejoin="round"/></svg><svg fill="none" viewBox="0 0 35 35" id="contract" xmlns="http://www.w3.org/2000/svg"><path d="M11.666 5.833L13.563 3.5c.292-.292.73-.583 1.167-.583h5.541c.438 0 .876.145 1.167.583l1.896 2.333v1.458c0 .875-.583 1.459-1.458 1.459h-8.75c-.875 0-1.459-.584-1.459-1.458V5.832v0zM14.146 13.562l-2.48 2.48-1.457-1.46M18.959 26.25h4.375" stroke="currentColor" stroke-width="1.5" stroke-linecap="round" stroke-linejoin="round"/><path d="M18.959 14.584h4.375" stroke="currentColor" stroke-width="1.5" stroke-miterlimit="10" stroke-linecap="round" stroke-linejoin="round"/><path d="M14.146 19.395l-2.48 2.48-1.457-1.459" stroke="currentColor" stroke-width="1.5" stroke-linecap="round" stroke-linejoin="round"/><path d="M18.959 20.416h4.375" stroke="currentColor" stroke-width="1.5" stroke-miterlimit="10" stroke-linecap="round" stroke-linejoin="round"/><path d="M23.334 5.833h2.916a2.925 2.925 0 012.917 2.917v20.417a2.925 2.925 0 01-2.917 2.916H8.75a2.925 2.925 0 01-2.917-2.916V8.75A2.925 2.925 0 018.75 5.833h2.917" stroke="currentColor" stroke-width="1.5" stroke-linecap="round" stroke-linejoin="round"/></svg><svg fill="none" viewBox="0 0 34 24" id="delivery" xmlns="http://www.w3.org/2000/svg"><path fill-rule="evenodd" clip-rule="evenodd" d="M1.994 1.23c-.258.139-.59.457-.737.706-.26.441-.268.68-.252 8.17.015 6.882.04 7.76.237 8.141.354.684.8.89 2.082.966l1.143.067.102.597c.147.868.742 1.742 1.506 2.215.581.359.774.405 1.683.405.908 0 1.102-.046 1.682-.405.765-.473 1.36-1.346 1.508-2.215l.101-.597h12.988l.102.597a3.211 3.211 0 002.984 2.663c1.746.11 3.18-1.033 3.415-2.724.073-.523.09-.538.69-.607.338-.038.774-.175.969-.302.713-.468.747-.681.79-4.87.034-3.42.012-3.919-.186-4.274-.242-.434-3.045-3.838-3.829-4.652-.652-.675-1.236-.777-4.465-.777h-2.674v-.945c0-1.024-.164-1.47-.735-2.004l-.36-.335-9.137-.036C2.879.98 2.441.99 1.994 1.231zM20.43 2.385l.33.33v10.199H2.127V7.778c0-5.293.014-5.443.536-5.63.11-.04 4.08-.076 8.82-.082l8.618-.01.33.328zm7.798 3.592c.678.71 3.523 4.169 3.523 4.284 0 .058-2.232.106-4.96.106h-4.96V5.54h5.98l.417.436zm3.657 6.329v.732l-1.24.038c-1.18.037-1.242.054-1.284.348-.08.566.184.696 1.401.696h1.123v1.743c0 1.564-.027 1.77-.268 2.01-.165.166-.447.269-.734.269-.372 0-.504-.074-.659-.369-.244-.466-.966-1.15-1.489-1.41-1.456-.725-3.325-.142-4.228 1.319l-.284.46h-2.391v-6.568h10.053v.732zm-7.685.43c-.05.048-.09.44-.09.87v.782H25.319v-1.742h-.514c-.283 0-.554.04-.603.09zm-3.44 3.395v2.01h-9.854l-.469-.631c-.593-.8-1.169-1.187-2.062-1.387-1.282-.287-2.694.353-3.439 1.559-.282.457-.29.46-1.279.46-1.172 0-1.53-.234-1.53-.999v-.462l.757-.04c.848-.046 1.174-.314.904-.745-.106-.168-.36-.245-.904-.274l-.757-.04V14.12H20.76v2.01zM8.605 17.385c.24.1.598.374.795.607.962 1.143.372 2.967-1.086 3.36a2.091 2.091 0 01-2.573-1.433c-.517-1.726 1.188-3.234 2.864-2.534zm19.796.119c.665.452.968.944 1.029 1.666.103 1.235-.84 2.24-2.101 2.24-1.753 0-2.758-2.094-1.642-3.42.686-.816 1.908-1.035 2.714-.486z" fill="currentColor"/><path d="M1.835.935h0c.306-.164.61-.222 1.852-.25C4.948.656 7.244.662 11.602.679l9.138.036h.132l.096.09.358.335c.31.29.532.577.668.948.133.362.174.776.174 1.3v.61h2.34c1.606 0 2.59.025 3.256.141.339.06.61.144.847.27.238.126.424.285.602.47M1.835.935L31.227 19.21l.039.333c.194-.022.408-.071.6-.13.186-.06.378-.136.514-.225h0c.183-.12.367-.25.51-.46.145-.208.229-.465.284-.806.108-.667.127-1.802.148-3.881.017-1.707.02-2.696-.006-3.304-.026-.604-.083-.886-.223-1.137-.076-.137-.318-.456-.619-.839-.31-.395-.71-.889-1.125-1.394-.828-1.005-1.733-2.07-2.136-2.487M1.835.935a2.34 2.34 0 00-.483.365m.483-.365l-.483.365m27.861 3.579l-.241.232.241-.232s0 0 0 0zM4.182 19.599l-.877-.051c-.646-.038-1.134-.11-1.511-.286-.401-.186-.649-.473-.85-.86-.074-.146-.12-.317-.152-.578-.033-.26-.055-.635-.072-1.2-.033-1.133-.043-3.079-.05-6.518C.662 6.365.66 4.425.692 3.367c.016-.526.042-.854.084-1.082.045-.249.112-.383.192-.52L4.182 19.6zm0 0l.056.334h0c.164.965.816 1.922 1.661 2.444h0c.297.183.528.308.816.378.279.067.592.077 1.043.077.45 0 .764-.01 1.043-.077.288-.07.519-.195.816-.378h0c.844-.522 1.496-1.478 1.66-2.443h0l.055-.319h12.422l.055.319h0a3.547 3.547 0 003.293 2.94c1.913.122 3.508-1.14 3.768-3.011l-26.688-.264zm-2.83-18.3c-.147.141-.29.307-.384.467l.384-.466zm29.565 18.296c.004-.016.007-.022.007-.022s-.005.01-.017.02a.064.064 0 01-.013.01l.023-.008zm-8.75-15.261h-.334v-.335l.335.335z" stroke="currentColor" stroke-width=".67"/></svg><svg fill="none" viewBox="0 0 18 18" id="diameter" xmlns="http://www.w3.org/2000/svg"><path d="M18 0H0v18h18V0z" fill="#fff"/><path d="M9 15.75a6.75 6.75 0 100-13.5 6.75 6.75 0 000 13.5z" fill="#fff" stroke="currentColor" stroke-linecap="round" stroke-linejoin="round"/><path d="M6 12l6-6" stroke="currentColor" stroke-linecap="round" stroke-linejoin="round"/></svg><svg fill="none" viewBox="0 0 18 18" id="dimensions" xmlns="http://www.w3.org/2000/svg"><path d="M5.25 15.75h-3v-3M2.25 5.25v-3h3M15.75 12.75v3h-3M15.75 15.75L2.25 2.25M15.75 2.25l-13.5 13.5M12.75 2.25h3v3" stroke="currentColor" stroke-miterlimit="10" stroke-linecap="round" stroke-linejoin="round"/></svg><svg fill="none" viewBox="0 0 18 18" id="drop" xmlns="http://www.w3.org/2000/svg"><path d="M12.525 6.525a4.98 4.98 0 010 7.05 4.98 4.98 0 01-7.05 0 4.98 4.98 0 010-7.05M5.476 6.525L9 3M12.525 6.525L9 3" stroke="currentColor" stroke-miterlimit="10" stroke-linecap="round" stroke-linejoin="round"/></svg><svg fill="none" viewBox="0 0 18 18" id="dropping" xmlns="http://www.w3.org/2000/svg"><path d="M9.75 14.25h-4.5c-.825 0-1.5-.675-1.5-1.5v-9M8.25 3.75h4.5c.825 0 1.5.675 1.5 1.5v9" stroke="currentColor" stroke-miterlimit="10" stroke-linecap="round" stroke-linejoin="round"/><path d="M5.625 5.625L3.75 3.75 1.875 5.625M12 12l2.25 2.25L16.5 12" stroke="currentColor" stroke-linecap="round" stroke-linejoin="round"/></svg><svg fill="none" viewBox="0 0 35 35" id="estimate" xmlns="http://www.w3.org/2000/svg"><path d="M18.959 23.334h5.833M10.209 22.896l1.458 1.313 2.625-2.48M18.959 16.041h5.833M10.209 15.605l1.458 1.312 2.625-2.48" stroke="currentColor" stroke-width="1.5" stroke-linecap="round" stroke-linejoin="round"/><path d="M27.708 5.833H7.292A2.925 2.925 0 004.375 8.75V27.71a2.925 2.925 0 002.917 2.916h20.416a2.925 2.925 0 002.917-2.916V8.75a2.925 2.925 0 00-2.917-2.917zM23.333 4.375V8.75M17.5 4.375V8.75M11.667 4.375V8.75" stroke="currentColor" stroke-width="1.5" stroke-miterlimit="10" stroke-linecap="round" stroke-linejoin="round"/></svg><svg fill="none" viewBox="0 0 20 20" id="gift" xmlns="http://www.w3.org/2000/svg"><path clip-rule="evenodd" d="M18 6H2c-.6 0-1 .4-1 1v2c0 .6.4 1 1 1h16c.6 0 1-.4 1-1V7c0-.6-.4-1-1-1z" stroke="currentColor" stroke-width="2" stroke-linecap="round" stroke-linejoin="round"/><path d="M10 19V6M13.7 4.6C12.6 5.7 10.9 6 10.1 6M10.1 6s-.5-3.1.7-4.4M13.7 4.6c.8-.8.8-2.2 0-3-.8-.8-2.1-.8-2.9 0M6.3 4.6C7.4 5.7 9.1 6 9.9 6M9.9 6s.5-3.1-.7-4.4M6.3 4.6c-.8-.8-.8-2.2 0-3 .8-.8 2.1-.8 2.9 0M17 10v8c0 .6-.4 1-1 1H4c-.6 0-1-.4-1-1v-8" stroke="currentColor" stroke-width="2" stroke-linecap="round" stroke-linejoin="round"/></svg><svg fill="none" viewBox="0 0 30 30" id="grid-view" xmlns="http://www.w3.org/2000/svg"><path clip-rule="evenodd" d="M9.75 12.25h-3.5a2.507 2.507 0 01-2.5-2.5v-3.5c0-1.375 1.125-2.5 2.5-2.5h3.5c1.375 0 2.5 1.125 2.5 2.5v3.5c0 1.375-1.125 2.5-2.5 2.5zM23.75 12.25h-3.5a2.507 2.507 0 01-2.5-2.5v-3.5c0-1.375 1.125-2.5 2.5-2.5h3.5c1.375 0 2.5 1.125 2.5 2.5v3.5c0 1.375-1.125 2.5-2.5 2.5zM9.75 26.25h-3.5a2.507 2.507 0 01-2.5-2.5v-3.5c0-1.375 1.125-2.5 2.5-2.5h3.5c1.375 0 2.5 1.125 2.5 2.5v3.5c0 1.375-1.125 2.5-2.5 2.5zM23.75 26.25h-3.5a2.507 2.507 0 01-2.5-2.5v-3.5c0-1.375 1.125-2.5 2.5-2.5h3.5c1.375 0 2.5 1.125 2.5 2.5v3.5c0 1.375-1.125 2.5-2.5 2.5z" stroke="currentColor" stroke-width="1.5" stroke-miterlimit="10" stroke-linecap="round" stroke-linejoin="round"/></svg><svg fill="none" viewBox="0 0 30 30" id="guarantee" xmlns="http://www.w3.org/2000/svg"><path d="M11.25 6.875h7.5M22.5 11.25h-15M7.5 18.125h3.75" stroke="currentColor" stroke-width="1.5" stroke-linecap="round" stroke-linejoin="round"/><path d="M18.75 22.5a3.75 3.75 0 100-7.5 3.75 3.75 0 000 7.5z" stroke="currentColor" stroke-width="1.5" stroke-miterlimit="10" stroke-linecap="round" stroke-linejoin="round"/><path d="M21.25 21.5v6l-2.5-1.25-2.5 1.25v-6" stroke="currentColor" stroke-width="1.5" stroke-miterlimit="10" stroke-linecap="round" stroke-linejoin="round"/><path d="M21.25 23.75H25c1.375 0 2.5-1.125 2.5-2.5V5c0-1.375-1.125-2.5-2.5-2.5H5A2.507 2.507 0 002.5 5v16.25c0 1.375 1.125 2.5 2.5 2.5h11.25" stroke="currentColor" stroke-width="1.5" stroke-linecap="round" stroke-linejoin="round"/></svg><svg fill="none" viewBox="0 0 36 35" id="guarantee-2" xmlns="http://www.w3.org/2000/svg"><path d="M9.11 20.125l-4.63 4.667 3.734 2.188 2.24 3.645 5.825-5.979M19.564 24.646l5.825 5.98 2.24-3.646 3.734-2.188-4.63-4.667" stroke="currentColor" stroke-width="1.5" stroke-miterlimit="10" stroke-linecap="round" stroke-linejoin="round"/><path d="M17.922 24.792c5.773 0 10.454-4.57 10.454-10.209 0-5.638-4.68-10.208-10.454-10.208-5.774 0-10.455 4.57-10.455 10.208s4.68 10.209 10.455 10.209z" stroke="currentColor" stroke-width="1.5" stroke-miterlimit="10" stroke-linecap="round" stroke-linejoin="round"/><path d="M17.922 18.375l2.688 1.313c.448.292 1.195-.146 1.045-.73l-.448-2.916L23.447 14c.448-.437.15-1.167-.448-1.167l-2.986-.437-1.345-2.625c-.298-.583-1.045-.583-1.344 0l-1.344 2.625-2.987.437c-.597.146-.747.73-.448 1.168l2.24 2.041-.448 2.917c-.15.583.448 1.02 1.046.729l2.539-1.313z" stroke="currentColor" stroke-width="1.5" stroke-linecap="round" stroke-linejoin="round"/></svg><svg fill="none" viewBox="0 0 37 35" id="house" xmlns="http://www.w3.org/2000/svg"><path d="M6.052 12.541v18.083H30.26V12.541" stroke="currentColor" stroke-width="1.5" stroke-miterlimit="10" stroke-linecap="round" stroke-linejoin="round"/><path d="M3.026 14.583l15.13-10.208 15.13 10.208M22.695 30.625v-8.75c0-1.605-1.361-2.917-3.026-2.917h-3.026c-1.664 0-3.026 1.313-3.026 2.917v8.75" stroke="currentColor" stroke-width="1.5" stroke-miterlimit="10" stroke-linecap="round" stroke-linejoin="round"/></svg><svg fill="none" viewBox="0 0 30 29" id="installation" xmlns="http://www.w3.org/2000/svg"><path d="M28.2 23.02l-7.518-7.518c1.902-4.077 1.268-9.06-2.083-12.321C16.153.735 12.802-.352 9.269.1c-.362.09-.634.271-.725.634-.09.362 0 .724.182.906l4.347 4.348a.705.705 0 01.182.725l-1.178 4.53a.817.817 0 01-.543.543l-4.53 1.178a.704.704 0 01-.724-.181l-4.53-4.53c-.27-.272-.543-.362-.905-.181-.362.09-.543.362-.634.725-.725 3.533.453 7.247 2.99 9.784 2.082 2.083 4.89 3.17 7.698 3.17 1.63 0 3.17-.362 4.71-1.087l7.519 7.52c.543.543 1.177.815 1.902.815.725 0 1.45-.272 1.902-.815l1.268-1.269c.544-.543.816-1.177.816-1.902a2.81 2.81 0 00-.816-1.993zM4.468 17.224a8.913 8.913 0 01-2.627-6.342l3.17 3.171c.635.634 1.631.906 2.446.634l4.53-1.178c.905-.271 1.54-.905 1.811-1.811l1.178-4.53c.271-.906 0-1.812-.635-2.446l-2.898-2.9c2.174.182 4.257 1.088 5.797 2.628a9.023 9.023 0 010 12.774 9.02 9.02 0 01-12.772 0zm22.464 8.425l-1.268 1.268a.875.875 0 01-1.268 0l-7.247-7.247c.453-.363.997-.725 1.36-1.178.452-.453.814-.906 1.177-1.359l7.246 7.248a.822.822 0 01.272.634c0 .272-.09.453-.272.634z" fill="currentColor"/><path d="M20.41 19.76a.438.438 0 00-.634 0 .438.438 0 000 .634l4.53 4.53c.09.09.18.09.362.09.18 0 .271 0 .362-.09a.438.438 0 000-.635l-4.62-4.53zM6.099 11.425c.271.271.724.453 1.087.453.09 0 .271 0 .362-.091l2.446-.634a1.633 1.633 0 001.087-1.087l.634-2.446c.18-.544 0-1.087-.363-1.45L9.541 4.358c-.363-.362-.906-.543-1.45-.362l-2.445.634a1.633 1.633 0 00-1.087 1.087l-.634 2.446c-.181.544 0 1.087.362 1.45l1.812 1.812zm-.725-5.527c.09-.18.181-.362.453-.453l2.446-.634c.18-.09.452 0 .634.181l1.811 1.812c.181.181.181.363.181.634l-.634 2.447c-.09.18-.18.362-.453.453l-2.445.634c-.181.09-.453 0-.634-.181L4.92 8.979c-.181-.182-.181-.363-.181-.635l.634-2.446z" fill="currentColor"/><path d="M7.82 9.703c.996 0 1.811-.815 1.811-1.812 0-.996-.815-1.811-1.811-1.811-.997 0-1.812.815-1.812 1.811 0 .997.815 1.812 1.812 1.812zm0-2.717c.543 0 .906.362.906.905 0 .544-.363.906-.906.906-.544 0-.906-.362-.906-.906 0-.543.453-.905.906-.905z" fill="currentColor"/></svg><svg fill="none" viewBox="0 0 30 30" id="letters" xmlns="http://www.w3.org/2000/svg"><path d="M9.25 6.25H24.5c.875 0 1.75.75 1.75 1.75v10c0 .875-.75 1.75-1.75 1.75H9.25C8.375 19.75 7.5 19 7.5 18V8c.125-1 .875-1.75 1.75-1.75z" stroke="currentColor" stroke-width="1.5" stroke-miterlimit="10" stroke-linecap="round" stroke-linejoin="round"/><path d="M7.75 7.375l7.75 5.5c.875.625 2 .625 2.875 0l7.75-5.5M20.75 23.75H6.25a2.507 2.507 0 01-2.5-2.5V12" stroke="currentColor" stroke-width="1.5" stroke-miterlimit="10" stroke-linecap="round" stroke-linejoin="round"/></svg><svg fill="none" viewBox="0 0 19 19" id="location" xmlns="http://www.w3.org/2000/svg"><path d="M9.5 10.25c-1.275 0-2.25-.975-2.25-2.25s.975-2.25 2.25-2.25 2.25.975 2.25 2.25-.975 2.25-2.25 2.25z" stroke="currentColor" stroke-linecap="round" stroke-linejoin="round"/><path d="M9.5 16.25S4.25 11.9 4.25 8A5.218 5.218 0 019.5 2.75 5.218 5.218 0 0114.75 8c0 3.975-5.25 8.25-5.25 8.25z" stroke="currentColor" stroke-miterlimit="10" stroke-linecap="round" stroke-linejoin="round"/></svg><svg fill="none" viewBox="0 0 18 13" id="mail" xmlns="http://www.w3.org/2000/svg"><path d="M2.43 1h13.14c.804 0 1.43.558 1.43 1.275v8.45c0 .717-.626 1.275-1.43 1.275H2.43C1.626 12 1 11.442 1 10.725v-8.45C1 1.638 1.626 1 2.43 1z" stroke="currentColor" stroke-width="1.5" stroke-miterlimit="10" stroke-linecap="round" stroke-linejoin="round"/><path d="M1.09 1.877l6.883 4.384c.625.399 1.43.399 2.055 0l6.883-4.384" stroke="currentColor" stroke-width="1.5" stroke-miterlimit="10" stroke-linecap="round" stroke-linejoin="round"/></svg><svg fill="none" viewBox="0 0 35 35" id="materials" xmlns="http://www.w3.org/2000/svg"><path d="M27.708 30.625h-7.292a2.925 2.925 0 01-2.916-2.917v-7.291a2.925 2.925 0 012.916-2.917h7.292a2.925 2.925 0 012.917 2.917v7.291a2.925 2.925 0 01-2.917 2.917zM14.583 30.625H7.291a2.925 2.925 0 01-2.916-2.917v-7.291A2.925 2.925 0 017.29 17.5h7.292a2.925 2.925 0 012.917 2.917v7.291a2.925 2.925 0 01-2.917 2.917zM21.146 17.5h-7.292a2.925 2.925 0 01-2.916-2.917V7.292a2.925 2.925 0 012.916-2.917h7.292a2.925 2.925 0 012.916 2.917v7.291a2.925 2.925 0 01-2.916 2.917zM8.75 26.25h2.917M14.584 13.125H17.5M21.875 26.25h2.917" stroke="currentColor" stroke-width="1.5" stroke-miterlimit="10" stroke-linecap="round" stroke-linejoin="round"/></svg><svg fill="none" viewBox="0 0 35 35" id="measuring" xmlns="http://www.w3.org/2000/svg"><path d="M16.625 22.75l7.292 7.292c.583.583 1.604.583 2.188 0l3.937-3.938c.584-.583.584-1.604 0-2.187l-7.291-7.292M27.271 12.104L22.896 7.73M18.521 12.25L11.23 4.958c-.583-.583-1.604-.583-2.187 0L5.104 8.896c-.583.583-.583 1.604 0 2.187l7.292 7.292" stroke="currentColor" stroke-width="1.5" stroke-miterlimit="10" stroke-linecap="round" stroke-linejoin="round"/><path d="M4.813 28.292l1.021-3.208c.146-.438.437-.875.73-1.167L25.958 4.52c.583-.583 1.458-.583 2.042 0l2.333 2.333c.583.584.583 1.459 0 2.042L10.938 28.292c-.292.292-.73.583-1.167.73l-3.208 1.02c-1.02.583-2.042-.583-1.75-1.75z" stroke="currentColor" stroke-width="1.5" stroke-miterlimit="10" stroke-linecap="round" stroke-linejoin="round"/></svg><svg fill="none" viewBox="0 0 19 20" id="minibus" xmlns="http://www.w3.org/2000/svg"><path d="M2.79 10.9H1M11.738 10.9h1.79M11.738 10.9l-1.074 1.53c-.537.72-1.342 1.17-2.236 1.17H6.011c-.895 0-1.7-.45-2.237-1.17L2.7 10.9M18 1v1.8M18 6.4v1.8M18 11.8v1.8M18 17.2V19" stroke="currentColor" stroke-width="1.5" stroke-miterlimit="10" stroke-linecap="round" stroke-linejoin="round"/><path d="M9.052 19H5.473c-1.52 0-2.684-1.17-2.684-2.7V5.5c0-.99.805-1.8 1.79-1.8h5.368a1.8 1.8 0 011.79 1.8v10.8c0 1.53-1.164 2.7-2.685 2.7zM11.736 7.3H2.79" stroke="currentColor" stroke-width="1.5" stroke-miterlimit="10" stroke-linecap="round" stroke-linejoin="round"/></svg><svg fill="none" viewBox="0 0 30 30" id="payment" xmlns="http://www.w3.org/2000/svg"><path d="M14.375 16.375a3.125 3.125 0 100-6.25 3.125 3.125 0 000 6.25z" stroke="currentColor" stroke-width="1.5" stroke-linecap="round" stroke-linejoin="round"/><path d="M26.25 17.5V7.625c0-1.375-1.125-2.5-2.5-2.5H5a2.507 2.507 0 00-2.5 2.5v11.25c0 1.375 1.125 2.5 2.5 2.5h10.375M6.25 17.625h2.5M20 8.875h2.5" stroke="currentColor" stroke-width="1.5" stroke-miterlimit="10" stroke-linecap="round" stroke-linejoin="round"/><path d="M19.25 18.75c-2.375.125-4.25 2-4.25 4.375s2 4.375 4.375 4.375c1.75 0 3.25-1 3.875-2.5" stroke="currentColor" stroke-width="1.5" stroke-miterlimit="10" stroke-linecap="round" stroke-linejoin="round"/><path d="M23.248 24.875c-2.375 0-4.375-2-4.375-4.375s2-4.375 4.375-4.375 4.375 2 4.375 4.375c-.125 2.375-2 4.375-4.375 4.375z" stroke="currentColor" stroke-width="1.5" stroke-miterlimit="10" stroke-linecap="round" stroke-linejoin="round"/></svg><svg fill="none" viewBox="0 0 18 18" id="people" xmlns="http://www.w3.org/2000/svg"><path d="M5.625 8.25a1.5 1.5 0 100-3 1.5 1.5 0 000 3zM12 8.25a1.875 1.875 0 100-3.75 1.875 1.875 0 000 3.75zM15.375 13.5v-.75c0-1.275-.975-2.25-2.25-2.25h-2.25c-1.275 0-2.25.975-2.25 2.25v.75M6.375 10.5h-1.5c-1.275 0-2.25.975-2.25 2.25v.75" stroke="currentColor" stroke-linecap="round" stroke-linejoin="round"/></svg><svg fill="none" viewBox="0 0 38 35" id="people-2" xmlns="http://www.w3.org/2000/svg"><path d="M18.594 22.312c2.14 0 3.874-1.632 3.874-3.646 0-2.013-1.735-3.646-3.874-3.646-2.14 0-3.874 1.633-3.874 3.646 0 2.014 1.734 3.646 3.874 3.646zM27.116 13.562c2.14 0 3.874-1.632 3.874-3.646 0-2.013-1.735-3.645-3.874-3.645-2.14 0-3.874 1.632-3.874 3.645 0 2.014 1.735 3.646 3.874 3.646zM27.89 17.938c2.325 0 4.65.73 6.199 1.896M10.072 13.562c2.14 0 3.873-1.632 3.873-3.646 0-2.013-1.734-3.645-3.873-3.645-2.14 0-3.874 1.632-3.874 3.645 0 2.014 1.734 3.646 3.874 3.646zM3.1 19.834c1.549-1.167 3.873-1.896 6.197-1.896M25.721 28.875c-1.86-1.313-4.338-2.188-7.127-2.188-2.79 0-5.269.875-7.128 2.188" stroke="currentColor" stroke-width="1.5" stroke-miterlimit="10" stroke-linecap="round" stroke-linejoin="round"/></svg><svg fill="none" viewBox="0 0 21 21" id="phone" xmlns="http://www.w3.org/2000/svg"><path d="M9.09 11.784c-1.442-1.44-2.523-3.001-3.123-4.562-.12-.36-.12-.72.24-.96l.96-.96c.842-.84.842-1.92.121-2.641l-1.441-1.44C4.886.26 3.444.26 2.484 1.22l-.841.84A3.988 3.988 0 00.562 5.54c.6 3.122 2.402 6.603 5.405 9.484 2.882 2.881 6.366 4.802 9.488 5.402 1.322.24 2.523-.12 3.484-.96l.84-.84c.961-.961.961-2.401 0-3.362l-1.44-1.44c-.722-.72-1.803-.72-2.523 0l-1.081 1.08c-.24.24-.6.36-.961.24a17.76 17.76 0 01-4.684-3.36z" fill="#fff"/></svg><svg fill="none" viewBox="0 0 35 35" id="request" xmlns="http://www.w3.org/2000/svg"><path d="M12.785 26.932h3.646M21.827 18.91v8.75a2.925 2.925 0 01-2.916 2.917h-8.75a2.925 2.925 0 01-2.917-2.917v-17.5a2.925 2.925 0 012.917-2.916h5.25" stroke="currentColor" stroke-width="1.5" stroke-linecap="round" stroke-linejoin="round"/><path d="M19.056 10.89c-.146 0-.146.145-.146.145 0 .146.146.146.146.146.146 0 .146-.146.146-.146l-.146-.146zM22.702 10.89c-.146 0-.146.145-.146.145 0 .146.146.146.146.146.146 0 .146-.146.146-.146l-.146-.146zM26.348 10.89c-.146 0-.146.145-.146.145 0 .146.145.146.145.146.146 0 .146-.146.146-.146l-.145-.146z" stroke="currentColor" stroke-width="1.5" stroke-miterlimit="10" stroke-linecap="round" stroke-linejoin="round"/><path d="M15.556 14.682c-.584-1.167-.875-2.334-.875-3.792 0-4.375 3.646-8.02 8.02-8.02 4.375 0 8.021 3.645 8.021 8.02s-3.646 8.02-8.02 8.02c-1.313 0-2.626-.291-3.646-.874l-4.23.875.73-4.23z" stroke="currentColor" stroke-width="1.5" stroke-linecap="round" stroke-linejoin="round"/></svg><svg fill="none" viewBox="0 0 18 21" id="route" xmlns="http://www.w3.org/2000/svg"><path d="M13 11.158h2c1.1 0 2 .915 2 2.032 0 1.118-.9 2.032-2 2.032H3c-1.1 0-2 .914-2 2.032 0 1.117.9 2.032 2 2.032h4M8 11.16s4-3.252 4-6.198C12 2.83 10.2 1 8 1S4 2.727 4 4.962c0 2.946 4 6.197 4 6.197z" stroke="currentColor" stroke-width="1.5" stroke-miterlimit="10" stroke-linecap="round" stroke-linejoin="round"/><path d="M7.997 4.759c.2 0 .3.101.3.304 0 .204-.1.305-.3.305-.2 0-.3-.101-.3-.305 0-.203.1-.304.3-.304z" stroke="currentColor" stroke-width="1.5" stroke-miterlimit="10" stroke-linecap="round" stroke-linejoin="round"/></svg><svg fill="none" viewBox="0 0 30 30" id="row-view" xmlns="http://www.w3.org/2000/svg"><path clip-rule="evenodd" d="M26.245 6.245v3.5c0 1.375-1.125 2.5-2.5 2.5h-17.5a2.507 2.507 0 01-2.5-2.5v-3.5c0-1.375 1.125-2.5 2.5-2.5h17.5c1.375 0 2.5 1.125 2.5 2.5zM26.245 20.37v3.5c0 1.375-1.125 2.5-2.5 2.5h-17.5a2.507 2.507 0 01-2.5-2.5v-3.5c0-1.375 1.125-2.5 2.5-2.5h17.5c1.375 0 2.5 1 2.5 2.5z" stroke="#E6E6E6" stroke-width="1.5" stroke-miterlimit="10" stroke-linecap="round" stroke-linejoin="round"/></svg><svg fill="none" viewBox="0 0 31 29" id="ruble" xmlns="http://www.w3.org/2000/svg"><path d="M15.594 27.625c7.702 0 13.945-5.876 13.945-13.125S23.295 1.375 15.594 1.375C7.892 1.375 1.648 7.251 1.648 14.5s6.244 13.125 13.946 13.125z" stroke="currentColor" stroke-width="1.5" stroke-miterlimit="10" stroke-linecap="round" stroke-linejoin="round"/><path d="M12.185 21.063V7.938h5.888c2.014 0 3.719 1.458 3.719 3.354 0 1.896-1.705 3.354-3.719 3.354" stroke="currentColor" stroke-width="1.5" stroke-linecap="round" stroke-linejoin="round"/><path d="M18.073 14.5H9.396M17.143 18.583H9.396" stroke="currentColor" stroke-width="1.5" stroke-miterlimit="10" stroke-linecap="round" stroke-linejoin="round"/></svg><svg fill="none" viewBox="0 0 24 25" id="search" xmlns="http://www.w3.org/2000/svg"><path d="M10 16.3a6 6 0 100-12 6 6 0 000 12zM14.2 14.6l5.8 5.9" stroke="currentColor" stroke-width="1.5" stroke-linecap="round" stroke-linejoin="round"/></svg><svg fill="none" viewBox="0 0 20 20" id="service" xmlns="http://www.w3.org/2000/svg"><path d="M11.834 5.917l3-3V2.75c-1.667-.75-3.75-.416-5.167 1-1.333 1.334-1.75 3.334-1.083 4.917l-5.667 5.667c-.75.75-.75 1.916 0 2.666s1.917.75 2.667 0l5.666-5.666c1.667.666 3.584.25 4.917-1.084 1.417-1.416 1.75-3.5 1-5.166 0-.084-.083-.084-.167 0l-3.083 3L12.834 7l-1-1.083z" stroke="currentColor" stroke-width="1.2" stroke-miterlimit="10" stroke-linecap="round" stroke-linejoin="round"/></svg><svg fill="none" viewBox="0 0 35 35" id="service-2" xmlns="http://www.w3.org/2000/svg"><path d="M20.709 10.354l5.25-5.25v-.291c-2.917-1.313-6.563-.73-9.042 1.75-2.333 2.333-3.063 5.833-1.896 8.604l-9.917 9.917c-1.312 1.312-1.312 3.354 0 4.666 1.313 1.313 3.355 1.313 4.667 0l9.917-9.916c2.917 1.166 6.27.437 8.604-1.896 2.48-2.48 3.063-6.125 1.75-9.042 0-.146-.146-.146-.292 0l-5.396 5.25-1.895-1.896-1.75-1.896z" stroke="currentColor" stroke-width="1.5" stroke-miterlimit="10" stroke-linecap="round" stroke-linejoin="round"/></svg><svg fill="none" viewBox="0 0 30 29" id="service-3" xmlns="http://www.w3.org/2000/svg"><path d="M28.2 23.02l-7.518-7.518c1.902-4.077 1.268-9.06-2.083-12.321C16.153.735 12.802-.352 9.269.1c-.362.09-.634.271-.725.634-.09.362 0 .724.182.906l4.347 4.348a.705.705 0 01.182.725l-1.178 4.53a.817.817 0 01-.543.543l-4.53 1.178a.704.704 0 01-.724-.181l-4.53-4.53c-.27-.272-.543-.362-.905-.181-.362.09-.543.362-.634.725-.725 3.533.453 7.247 2.99 9.784 2.082 2.083 4.89 3.17 7.698 3.17 1.63 0 3.17-.362 4.71-1.087l7.519 7.52c.543.543 1.177.815 1.902.815.725 0 1.45-.272 1.902-.815l1.268-1.269c.544-.543.816-1.177.816-1.902a2.81 2.81 0 00-.816-1.993zM4.468 17.224a8.913 8.913 0 01-2.627-6.342l3.17 3.171c.635.634 1.631.906 2.446.634l4.53-1.178c.905-.271 1.54-.905 1.811-1.811l1.178-4.53c.271-.906 0-1.812-.635-2.446l-2.898-2.9c2.174.182 4.257 1.088 5.797 2.628a9.023 9.023 0 010 12.774 9.02 9.02 0 01-12.772 0zm22.464 8.425l-1.268 1.268a.875.875 0 01-1.268 0l-7.247-7.247c.453-.363.997-.725 1.36-1.178.452-.453.814-.906 1.177-1.359l7.246 7.248a.822.822 0 01.272.634c0 .272-.09.453-.272.634z" fill="currentColor"/><path d="M20.41 19.76a.438.438 0 00-.634 0 .438.438 0 000 .634l4.53 4.53c.09.09.18.09.362.09.18 0 .271 0 .362-.09a.438.438 0 000-.635l-4.62-4.53zM6.099 11.425c.271.271.724.453 1.087.453.09 0 .271 0 .362-.091l2.446-.634a1.633 1.633 0 001.087-1.087l.634-2.446c.18-.544 0-1.087-.363-1.45L9.541 4.358c-.363-.362-.906-.543-1.45-.362l-2.445.634a1.633 1.633 0 00-1.087 1.087l-.634 2.446c-.181.544 0 1.087.362 1.45l1.812 1.812zm-.725-5.527c.09-.18.181-.362.453-.453l2.446-.634c.18-.09.452 0 .634.181l1.811 1.812c.181.181.181.363.181.634l-.634 2.447c-.09.18-.18.362-.453.453l-2.445.634c-.181.09-.453 0-.634-.181L4.92 8.979c-.181-.182-.181-.363-.181-.635l.634-2.446z" fill="currentColor"/><path d="M7.82 9.703c.996 0 1.811-.815 1.811-1.812 0-.996-.815-1.811-1.811-1.811-.997 0-1.812.815-1.812 1.811 0 .997.815 1.812 1.812 1.812zm0-2.717c.543 0 .906.362.906.905 0 .544-.363.906-.906.906-.544 0-.906-.362-.906-.906 0-.543.453-.905.906-.905z" fill="currentColor"/></svg><svg fill="none" viewBox="0 0 34 34" id="shovel" xmlns="http://www.w3.org/2000/svg"><path d="M10.718 32.428a17.106 17.106 0 001.332-.34h0l.011-.003c.31-.105.865-.34 1.254-.533l-.268-.537.268.537a12.42 12.42 0 001.318-.782l.002-.002c.258-.182.641-.521 1.267-1.117.634-.604 1.546-1.5 2.874-2.818h0a199.468 199.468 0 002.79-2.804c.264-.274.451-.478.575-.624.061-.073.118-.144.162-.211a.964.964 0 00.073-.131.677.677 0 00-.03-.627 1.424 1.424 0 00-.12-.18 5.772 5.772 0 00-.348-.405 61.298 61.298 0 00-1.527-1.557l-1.485-1.483 9.19-9.168c.304.284.54.467.735.566.16.087.32.162.536.202.191.035.407.039.666.039.251 0 .46-.006.641-.037a1.58 1.58 0 00.51-.178 3.75 3.75 0 00.65-.453l.01-.01.01-.01c.19-.18.43-.502.554-.762.083-.167.15-.328.19-.525.036-.187.042-.38.042-.596 0-.444-.046-.73-.199-1.072h0c-.105-.233-.322-.49-.661-.855-.361-.387-.93-.962-1.82-1.847-.956-.954-1.531-1.52-1.908-1.865-.374-.344-.597-.512-.846-.626l-.007-.004-16.565 30.231m.124.587l-.124-.587m.124.587s0 0 0 0l-.124-.587m.124.587c-.646.137-1.045.172-1.748.172-.77 0-1.066-.037-1.731-.194l-.005-.001a9.034 9.034 0 01-1.45-.504l-.004-.002a10.872 10.872 0 01-1.093-.607c-.272-.181-.722-.565-1.024-.854l-.005-.004h0a9.363 9.363 0 01-.93-1.074l-.006-.008h0c-.2-.292-.482-.796-.643-1.124l-.003-.006-.003-.007a9.11 9.11 0 01-.474-1.304m8.995 4.93c-.599.127-.955.159-1.624.159-.727 0-.975-.032-1.593-.178a8.47 8.47 0 01-1.338-.464M1.6 26.911l.001.006.578-.16m-.58.154l-.001-.006.581-.149m-.58.155a4.443 4.443 0 01-.163-.807 12.491 12.491 0 01-.035-1.092v-.003c0-.91.026-1.298.153-1.873m.625 3.62c.09.35.293.89.44 1.208.153.311.42.788.599 1.049a8.8 8.8 0 00.86.991c.293.28.713.636.943.788.23.153.688.407 1.02.566m-3.862-4.602c-.159-.572-.172-.743-.178-1.747 0-.897.025-1.234.14-1.748m3.9 8.097h0zm-4.487-8.222l-.001.007.588.118m-.587-.125l.002-.006.585.13m-.587-.124c.076-.375.234-.942.36-1.284m.227 1.409c.07-.35.223-.897.338-1.208m0 0l-.568-.194.002-.007m.566.201c.108-.318.331-.833.49-1.144m-.49 1.144l-.563-.207-.003.006m0 0c.12-.347.35-.878.519-1.21m.537.267l-.54-.26.003-.007m.537.267c.153-.318.402-.744.542-.953.14-.21.452-.61.688-.89.236-.28 1.873-1.945 3.644-3.706l-.423-.425c-1.758 1.747-3.422 3.438-3.68 3.744-.241.287-.57.706-.728.943-.154.23-.414.677-.58 1.02m.537.267l-.534-.273-.003.006m12.75-4.659L25.21 5.973M15.18 15.982L25.21 5.973M15.18 15.982l.424-.425-.424-.422-.424.422.424.425zM25.21 5.973l-.407-.408h0l-.017-.017-.419.418.008.009.003.002.401.414.43-.419zm-.943-1.208l-.562.21s0 0 0 0l.562-.21z" stroke="currentColor" stroke-width="1.2"/><path fill-rule="evenodd" clip-rule="evenodd" d="M26.158 2c.287 0 .49.044.758.159.319.146.663.458 2.58 2.37 1.784 1.774 2.243 2.27 2.358 2.524.108.241.146.439.146.826 0 .426-.026.566-.172.858-.09.191-.287.458-.427.591a3.147 3.147 0 01-.535.375c-.223.121-.37.147-.873.147-.535 0-.643-.02-.924-.172-.178-.089-.477-.33-1.019-.877L18.016 18.81l1.911 1.907c1.478 1.475 1.912 1.945 1.912 2.066 0 .127-.72.877-3.485 3.623-2.657 2.637-3.632 3.566-4.065 3.87-.318.223-.873.553-1.242.738-.37.184-.898.407-1.179.502-.28.089-.853.235-1.274.324-.599.127-.955.159-1.624.159-.727 0-.975-.032-1.593-.178a8.47 8.47 0 01-1.338-.464c-.331-.159-.79-.413-1.02-.566-.229-.152-.65-.508-.942-.788a8.8 8.8 0 01-.86-.991c-.179-.26-.446-.738-.599-1.049a8.517 8.517 0 01-.44-1.208c-.159-.572-.172-.743-.178-1.747 0-.897.025-1.234.14-1.748.07-.35.223-.897.338-1.208a10.472 10.472 0 011.032-2.098c.14-.21.452-.61.688-.89.236-.279 1.873-1.944 3.644-3.705 2.478-2.466 3.243-3.19 3.364-3.19.114 0 .611.457 3.975 3.813L25.21 5.973l-.402-.414c-.28-.292-.44-.52-.541-.794-.115-.305-.14-.47-.121-.826.017-.297.076-.551.178-.763.09-.178.274-.432.414-.572.14-.134.427-.324.637-.426A1.78 1.78 0 0126.152 2h.006zm-.796 1.049a1.526 1.526 0 00-.332.413 1.395 1.395 0 00-.127.572c0 .19.05.413.121.553.07.133 1.064 1.176 2.217 2.32 1.147 1.144 2.166 2.11 2.262 2.142.102.038.318.07.497.07.184 0 .414-.051.554-.121.134-.064.306-.19.382-.273a1.34 1.34 0 00.236-.388c.057-.127.102-.343.102-.477 0-.127-.058-.35-.121-.49-.077-.164-.848-.972-2.211-2.332-1.427-1.41-2.172-2.11-2.338-2.18a1.294 1.294 0 00-.446-.089c-.108 0-.293.032-.395.064a1.791 1.791 0 00-.401.216zm-7.308 11.154l1.752 1.748 7.709-7.69-1.752-1.748-7.709 7.69zm-13.582 5.72c-.147.191-.389.554-.535.795-.147.248-.35.617-.44.826-.095.21-.261.655-.37.986-.108.33-.241.934-.305 1.334a7.032 7.032 0 00-.07 1.462c.019.426.095.947.172 1.24.076.28.197.654.267.826.077.178.268.547.427.82.16.28.523.75.803 1.042.28.299.682.661.892.807.21.153.611.388.892.528.28.146.777.337 1.115.426a6.42 6.42 0 001.337.203 7.1 7.1 0 001.466-.07 12.18 12.18 0 001.401-.324c.363-.12.924-.35 1.243-.508.312-.166.802-.458 1.083-.655.344-.242 1.56-1.405 3.79-3.617l3.281-3.254-3.44-3.438c-4.823 4.792-5.205 5.148-5.479 5.25-.216.082-.478.12-.796.114-.37 0-.554-.038-.797-.152a2.627 2.627 0 01-.573-.414 2.26 2.26 0 01-.414-.572c-.115-.241-.153-.432-.153-.794-.006-.324.032-.578.115-.795.102-.273.458-.66 2.688-2.892l2.574-2.574c-2.644-2.631-3.428-3.4-3.447-3.4-.019 0-1.478 1.449-3.249 3.229-1.77 1.773-3.338 3.381-3.478 3.572zm5.593 2.448a1.97 1.97 0 00-.07.381c0 .07.039.242.077.382.044.14.178.355.306.476.127.134.344.26.51.312.178.05.382.07.54.038a1.88 1.88 0 00.415-.127c.083-.051 1.79-1.716 3.79-3.712l3.632-3.63c-1.338-1.328-1.74-1.716-1.752-1.716-.02 0-1.688 1.653-3.708 3.674-3.147 3.14-3.682 3.706-3.74 3.922zm1.147-7.532c.051 0 .166.057.261.127.096.07.179.184.179.254s-.077.216-.16.318c-.114.134-.216.19-.35.19a.467.467 0 01-.287-.095c-.057-.05-.095-.165-.089-.26 0-.09.083-.248.185-.35.095-.101.217-.184.261-.184zm-.898.953c.09.007.21.051.274.115a.437.437 0 01.108.267c0 .12-.408.565-1.74 1.894-1.56 1.557-1.757 1.729-1.942 1.729-.147 0-.223-.038-.274-.14a.504.504 0 01-.038-.305c.025-.096.72-.833 1.745-1.856 1.319-1.316 1.746-1.704 1.867-1.704z" fill="currentColor"/></svg><svg fill="none" viewBox="0 0 21 20" id="shower" xmlns="http://www.w3.org/2000/svg"><path d="M11.72 7.623c0-.243.247-.487.495-.487.247 0 .495.244.495.487v3c0 .244-.248.487-.495.487-.248 0-.495-.243-.495-.486V7.623zM4.95 17.111V3.001c0-.568.248-1.136.66-1.46.413-.406.908-.649 1.486-.649s1.156.243 1.486.649c.33.324.578.81.66 1.297l-3.054 3c-.082.082-.165.244-.165.325 0 .244.248.487.495.487h6.439c.165 0 .247-.081.33-.162a.487.487 0 000-.65l-3.054-3c-.083-.73-.413-1.46-.908-1.946C8.748.324 8.006 0 7.097 0c-.825 0-1.65.324-2.228.892-.578.568-.908 1.298-.908 2.19v14.11c0 .244.247.487.495.487.248-.081.495-.324.495-.568zm-3.136 2.757c-.413 0-.826-.324-.826-.81 0-.487.33-.811.826-.811h17.828c.413 0 .826.324.826.81a.82.82 0 01-.826.811H1.815zM9.739 3.73l2.063 2.028H7.675L9.739 3.73zM6.602 7.623c0-.243.248-.487.495-.487.248 0 .495.244.495.487v3c0 .244-.247.487-.495.487-.247 0-.495-.243-.495-.486V7.623zm2.559 1.298c0-.244.247-.487.495-.487s.495.243.495.487v3c0 .243-.247.487-.495.487s-.495-.244-.495-.487v-3z" fill="currentColor"/></svg><svg fill="none" viewBox="0 0 13 12" id="star" xmlns="http://www.w3.org/2000/svg"><path d="M6.5 0l1.872 3.923 4.31.568-3.153 2.993.792 4.275L6.5 9.685l-3.82 2.074.79-4.275L.319 4.491l4.31-.568L6.5 0z" fill="currentColor"/></svg><svg fill="none" viewBox="0 0 21 18" id="tap" xmlns="http://www.w3.org/2000/svg"><path d="M16.458 2.844a.504.504 0 01-.469.469.504.504 0 01-.469-.469c0-.468-.234-.937-.546-1.327A1.885 1.885 0 0013.645.97h-.39c-.547 0-.938.235-1.328.547-.313.312-.547.78-.547 1.327v4.608h1.484V6.28c0-.39.313-.78.781-.78.391 0 .782.312.782.78v1.172h5.781c.39 0 .781.312.781.78 0 .391-.312.781-.781.781h-.469c-.156 1.484-1.172 2.89-2.578 3.905a10.504 10.504 0 01-5.39 1.718v2.499c0 .39-.313.78-.782.78a.783.783 0 01-.781-.78v-2.343-.156c-2.11-.156-3.984-.781-5.39-1.718-1.485-1.015-2.422-2.343-2.579-3.905h-.468a.783.783 0 01-.782-.78c0-.39.313-.781.782-.781h5.78V6.28c0-.39.313-.78.782-.78.39 0 .781.312.781.78v1.172H10.6V2.844c0-.78.312-1.483.78-1.952.47-.468 1.173-.78 1.954-.78h.39c.782 0 1.485.312 1.954.78.468.547.781 1.25.781 1.952zm2.422 6.17H3.177c.156 1.17 1.015 2.264 2.187 3.123 1.407 1.015 3.438 1.562 5.625 1.562 2.188 0 4.219-.625 5.625-1.562 1.25-.859 2.11-1.952 2.266-3.124z" fill="currentColor"/></svg><svg viewBox="0 0 24 24" id="telegramm" xmlns="http://www.w3.org/2000/svg"><circle cx="12" cy="12" r="12"/><path d="M5.61 12.225l2.76 1.028 1.075 3.46c.047.234.327.281.514.14l1.543-1.262c.14-.14.374-.14.561 0l2.76 2.01c.186.141.467.048.514-.186l2.057-9.82c.047-.234-.187-.467-.42-.374L5.61 11.617c-.28.093-.28.514 0 .607zm3.695.514l5.424-3.32c.093-.047.187.093.093.14l-4.442 4.162c-.14.14-.28.327-.28.56l-.14 1.123c0 .14-.235.187-.281 0l-.562-2.057c-.14-.234-.046-.515.188-.608z" fill="#fff"/></svg><svg fill="none" viewBox="0 0 31 31" id="telegramm-2" xmlns="http://www.w3.org/2000/svg"><circle cx="15.633" cy="15.205" r="15.205" fill="#2B3141"/><path d="M7.537 15.49l3.496 1.304 1.362 4.384c.06.296.415.356.652.178l1.955-1.6c.178-.178.474-.178.711 0l3.496 2.548c.237.178.593.06.652-.237l2.607-12.443c.06-.296-.237-.592-.533-.474L7.537 14.72c-.356.118-.356.652 0 .77zm4.68.652l6.874-4.207c.118-.06.237.119.118.178l-5.629 5.273c-.177.178-.355.415-.355.711l-.178 1.422c0 .178-.296.237-.355 0l-.711-2.607c-.178-.296-.06-.652.237-.77z" fill="#fff"/></svg><svg fill="none" viewBox="0 0 18 18" id="thickness" xmlns="http://www.w3.org/2000/svg"><path d="M3.75 5.25v7.5M14.25 12.75v-7.5" stroke="currentColor" stroke-linecap="round" stroke-linejoin="round"/><path d="M15 15.75h-1.5c-.45 0-.75-.3-.75-.75v-1.5c0-.45.3-.75.75-.75H15c.45 0 .75.3.75.75V15c0 .45-.3.75-.75.75zM4.5 15.75H3c-.45 0-.75-.3-.75-.75v-1.5c0-.45.3-.75.75-.75h1.5c.45 0 .75.3.75.75V15c0 .45-.3.75-.75.75zM15 5.25h-1.5c-.45 0-.75-.3-.75-.75V3c0-.45.3-.75.75-.75H15c.45 0 .75.3.75.75v1.5c0 .45-.3.75-.75.75zM4.5 5.25H3c-.45 0-.75-.3-.75-.75V3c0-.45.3-.75.75-.75h1.5c.45 0 .75.3.75.75v1.5c0 .45-.3.75-.75.75z" stroke="currentColor" stroke-miterlimit="10" stroke-linecap="round" stroke-linejoin="round"/><path d="M5.25 14.25h7.5M12.75 3.75h-7.5" stroke="currentColor" stroke-linecap="round" stroke-linejoin="round"/></svg><svg fill="none" viewBox="0 0 29 31" id="toilet" xmlns="http://www.w3.org/2000/svg"><path d="M1.203 16.864A1.224 1.224 0 010 15.624c0-.62.481-1.24 1.203-1.24h26.594c.601 0 1.203.496 1.203 1.24 0 .62-.481 1.24-1.203 1.24h-.722a9.183 9.183 0 01-2.527 5.332c-1.685 1.736-3.85 2.728-6.378 2.728h-1.324l-1.082 5.456c-.12.372-.361.62-.723.62H5.896c-.36 0-.722-.372-.722-.744v-7.564c-.962-.868-1.684-1.86-2.286-2.976-.361-.868-.722-1.86-.842-2.852h-.843zM3.851 0h4.693c.601 0 1.083.248 1.444.62.36.372.601.868.601 1.364v9.176c0 .62-.24 1.116-.601 1.488-.361.372-.843.62-1.444.62H3.85a1.964 1.964 0 01-1.444-.62 2.085 2.085 0 01-.602-1.488V1.984c0-.62.24-1.116.602-1.488C2.767.248 3.249 0 3.85 0zm4.693 1.488H3.85c-.12 0-.361.124-.361.124-.12.124-.12.248-.12.372v9.176c0 .124.12.372.12.372.12.124.24.124.36.124h4.694c.12 0 .36-.124.36-.124.12-.124.12-.248.12-.372V1.984c0-.124 0-.248-.12-.372-.12 0-.24-.124-.36-.124zM25.51 16.864H3.37c.12.744.36 1.488.721 2.108.482.992 1.204 1.984 2.046 2.728.24.124.36.372.36.62v7.192h7.943l1.083-5.456c0-.372.36-.62.722-.62h1.925a7.445 7.445 0 005.295-2.232c1.083-1.24 1.805-2.728 2.045-4.34z" fill="currentColor"/></svg><svg fill="none" viewBox="0 0 31 31" id="vk" xmlns="http://www.w3.org/2000/svg"><circle cx="15.205" cy="15.205" r="15.205" fill="currentColor"/><path d="M22.66 19.094c0-.063-.062-.063-.062-.126-.253-.505-.821-1.136-1.578-1.83-.38-.316-.569-.568-.695-.695-.19-.252-.19-.442-.126-.694.063-.19.316-.505.757-1.073.253-.316.38-.505.569-.694.946-1.263 1.388-2.083 1.262-2.462l-.063-.063c-.063-.063-.127-.126-.253-.126-.126-.063-.315-.063-.505 0H19.126l-.063.063c-.063.063-.063.063-.063.126-.253.694-.568 1.262-.884 1.894-.19.315-.379.63-.568.883-.19.253-.316.442-.442.568-.126.127-.252.19-.316.316-.063.063-.189.126-.189.063-.063 0-.126 0-.126-.063l-.19-.19c-.063-.063-.063-.189-.126-.315v-.316-.378-.38-.693-.568-.442-.379c0-.063-.063-.19-.063-.252l-.19-.19c-.062-.063-.189-.063-.252-.126a5.663 5.663 0 00-1.136-.126c-1.01 0-1.704.063-1.957.189-.126.063-.252.126-.315.252-.126.127-.126.19-.063.19.315.063.568.19.694.379l.063.126c.063.063.063.19.127.379.063.189.063.378.063.63v1.01c0 .316-.064.506-.064.695 0 .19-.063.316-.126.379-.063.126-.063.19-.126.19 0 0 0 .062-.063.062s-.126.063-.253.063a.479.479 0 01-.252-.126.761.761 0 01-.316-.316 2.204 2.204 0 01-.378-.568c-.127-.252-.316-.505-.442-.883l-.127-.253a8.952 8.952 0 01-.315-.694c-.126-.316-.253-.568-.379-.884a.87.87 0 00-.19-.252h-.062s-.063-.063-.127-.063c-.063 0-.126-.063-.189-.063H7.45c-.253 0-.379.063-.442.126l-.063.063v.126c0 .063 0 .126.063.253.316.757.694 1.514 1.073 2.272.379.694.757 1.325 1.01 1.767.316.442.568.884.884 1.263.315.378.505.63.568.757l.252.253.19.189c.126.126.315.316.568.505.252.19.568.379.883.568.316.19.695.316 1.073.442.442.126.82.19 1.2.126h.946c.19 0 .316-.063.442-.19l.063-.062c0-.064.064-.064.064-.127v-.252c0-.253 0-.442.063-.631.063-.19.063-.316.126-.442s.126-.19.19-.253l.125-.126h.064c.126-.063.315 0 .441.126.19.127.38.316.505.505.127.19.316.379.568.631.253.253.442.442.569.505l.189.127c.126.063.252.126.442.189.189.063.315.063.442.063l2.146-.063c.189 0 .378-.063.505-.126.126-.063.189-.126.189-.253v-.252c-.126-.126-.126-.19-.126-.253z" fill="#fff"/></svg><svg fill="none" viewBox="0 0 18 18" id="weight" xmlns="http://www.w3.org/2000/svg"><path d="M3.75 5.25v7.5M14.25 12.75v-7.5" stroke="currentColor" stroke-linecap="round" stroke-linejoin="round"/><path d="M15 15.75h-1.5c-.45 0-.75-.3-.75-.75v-1.5c0-.45.3-.75.75-.75H15c.45 0 .75.3.75.75V15c0 .45-.3.75-.75.75zM4.5 15.75H3c-.45 0-.75-.3-.75-.75v-1.5c0-.45.3-.75.75-.75h1.5c.45 0 .75.3.75.75V15c0 .45-.3.75-.75.75zM15 5.25h-1.5c-.45 0-.75-.3-.75-.75V3c0-.45.3-.75.75-.75H15c.45 0 .75.3.75.75v1.5c0 .45-.3.75-.75.75zM4.5 5.25H3c-.45 0-.75-.3-.75-.75V3c0-.45.3-.75.75-.75h1.5c.45 0 .75.3.75.75v1.5c0 .45-.3.75-.75.75z" stroke="currentColor" stroke-miterlimit="10" stroke-linecap="round" stroke-linejoin="round"/><path d="M5.25 14.25h7.5M12.75 3.75h-7.5" stroke="currentColor" stroke-linecap="round" stroke-linejoin="round"/><path d="M18 0H0v18h18V0z" fill="#fff"/><path fill-rule="evenodd" clip-rule="evenodd" d="M3 11.625v-5.25c0-.525.3-1.05.75-1.275l4.5-2.625c.45-.3 1.05-.3 1.5 0l4.5 2.625c.45.3.75.75.75 1.275v5.25c0 .525-.3 1.05-.75 1.275l-4.5 2.625c-.45.3-1.05.3-1.5 0L3.75 12.9c-.45-.225-.75-.75-.75-1.275z" fill="#fff" stroke="currentColor" stroke-miterlimit="10" stroke-linecap="round" stroke-linejoin="round"/><path d="M9 15.75V9M9 9l5.85-3.375M3.225 5.625L9 9" stroke="currentColor" stroke-miterlimit="10" stroke-linecap="round" stroke-linejoin="round"/></svg><svg viewBox="0 0 24 24" id="whatsapp" xmlns="http://www.w3.org/2000/svg"><circle cx="12" cy="12" r="12"/><path d="M16.756 7.237A6.257 6.257 0 0012.322 5.4c-3.468 0-6.278 2.8-6.278 6.256 0 1.094.307 2.188.834 3.106L6 18l3.337-.875a6.42 6.42 0 002.985.744c3.468 0 6.278-2.8 6.278-6.256-.044-1.62-.659-3.194-1.844-4.376zm-1.405 6.65c-.132.35-.746.7-1.053.744a2.461 2.461 0 01-.966-.043c-.22-.088-.527-.175-.878-.35-1.58-.657-2.59-2.232-2.678-2.363-.088-.088-.659-.831-.659-1.619 0-.787.395-1.137.527-1.312.132-.175.307-.175.439-.175h.307c.088 0 .22-.044.351.262.132.306.44 1.094.483 1.138a.278.278 0 010 .262.915.915 0 01-.175.263c-.088.087-.176.218-.22.262-.088.088-.175.175-.088.306.088.175.396.657.879 1.094.614.525 1.097.7 1.273.788.175.087.263.043.35-.044.089-.088.396-.438.484-.612.088-.175.22-.132.351-.088.132.044.922.438 1.054.525.175.087.263.131.307.175.044.131.044.438-.088.787z" fill="#fff"/></svg><svg fill="none" viewBox="0 0 31 31" id="youtube" xmlns="http://www.w3.org/2000/svg"><circle cx="15.419" cy="15.205" r="15.205" fill="currentColor"/><path d="M22.163 14.203c0-.295-.049-.64-.049-1.032a68.18 68.18 0 00-.147-1.131c-.099-.393-.246-.688-.541-.934a1.66 1.66 0 00-.934-.442c-1.13-.148-2.801-.197-5.062-.197-2.26 0-3.981.05-5.062.197a1.66 1.66 0 00-.934.442c-.246.246-.443.54-.54.934a3.94 3.94 0 00-.148 1.13 7.98 7.98 0 00-.05 1.033v2.26c0 .295.05.64.05 1.033.049.393.098.786.147 1.13.098.393.246.688.54.934.247.245.59.393.935.442 1.13.148 2.801.197 5.062.197 2.26 0 3.981-.05 5.062-.197a1.66 1.66 0 00.934-.442 1.96 1.96 0 00.54-.934 3.94 3.94 0 00.148-1.13c.05-.394.05-.738.05-1.033v-1.13-1.13zm-4.128 1.523l-3.883 2.408a.375.375 0 01-.246.099c-.098 0-.147 0-.245-.05a.516.516 0 01-.246-.442v-4.865c0-.197.098-.345.246-.443a.446.446 0 01.491 0l3.883 2.409c.147.098.245.245.245.393 0 .147-.098.393-.245.491z" fill="#fff"/></svg></svg>