<?xml version="1.0" encoding="utf-8"?><svg viewBox="0 0 512 512" xmlns="http://www.w3.org/2000/svg" xmlns:xlink="http://www.w3.org/1999/xlink"><style>:root>svg{display:none}:root>svg:target{display:block}</style><svg fill="none" viewBox="0 0 35 35" id="act" xmlns="http://www.w3.org/2000/svg"><path d="M30.625 15.604v12.104c0 1.604-1.312 2.917-2.77 2.917H7.291c-1.604 0-2.771-1.313-2.771-2.917v-17.5c0-1.604 1.313-2.917 2.77-2.917h7.876" stroke="currentColor" stroke-width="1.484" stroke-linecap="round" stroke-linejoin="round"/><path d="M26.396 5.104c1.02-1.02 2.625-1.02 3.5 0 1.02 1.021 1.02 2.625 0 3.5l-8.459 8.46c-.291.29-.583.436-1.02.436H17.5v-2.916c0-.438.146-.73.437-1.021l8.459-8.459z" stroke="currentColor" stroke-width="1.5" stroke-miterlimit="10" stroke-linecap="round" stroke-linejoin="round"/><path d="M11.667 17.5H8.75M8.75 23.334h17.5" stroke="currentColor" stroke-width="1.5" stroke-linecap="round" stroke-linejoin="round"/><path d="M28.437 10.208l-3.646-3.5" stroke="currentColor" stroke-width="1.5" stroke-miterlimit="10" stroke-linecap="round" stroke-linejoin="round"/></svg><svg fill="none" viewBox="0 0 27 27" id="balloon" xmlns="http://www.w3.org/2000/svg"><path fill-rule="evenodd" clip-rule="evenodd" d="M13.36 0c.118 0 .506.021.862.048.356.033.91.092 1.24.14.328.043.856.145 1.185.22.328.075.91.247 1.293.376.382.129 1.067.413 1.509.633.447.22 1.072.57 1.4.784.33.21.825.564 1.105.79.28.22.803.697 1.159 1.052.355.36.83.891 1.056 1.186.226.296.544.741.711.994.162.252.42.687.566.966.15.28.382.762.512 1.074.129.311.312.8.41 1.084.09.29.226.848.296 1.235.075.392.183 1.186.247 1.761.114 1.01.114 1.074.027 1.852a31.208 31.208 0 01-.194 1.45c-.059.354-.167.934-.242 1.288-.075.355-.291 1.251-.48 1.987-.188.74-.371 1.573-.41 1.852-.037.28-.07.897-.07 1.37 0 .579.033 1.025.098 1.368.048.28.178.763.28 1.074.102.311.264.698.35.859.086.161.248.413.361.558.108.145.221.296.253.333.038.054.011.113-.247.37l-.415-.203a8.91 8.91 0 00-.981-.382 11.69 11.69 0 00-1.105-.295c-.296-.059-.83-.14-1.185-.172a14.617 14.617 0 00-1.59-.032c-.517.016-1.271.08-1.67.14-.399.064-1.164.236-1.697.386-.534.15-1.261.339-1.617.424-.355.086-.792.178-.97.21-.178.032-.603.091-.943.14-.34.042-.803.08-1.023.08-.221 0-.82-.048-1.32-.107a19.296 19.296 0 01-1.536-.247c-.34-.076-.932-.242-1.32-.37a13.703 13.703 0 01-1.24-.473 16.424 16.424 0 01-1.104-.559 15.728 15.728 0 01-1.105-.687 17.243 17.243 0 01-.997-.757c-.253-.21-.7-.633-1.002-.94a15.155 15.155 0 01-.878-.987c-.189-.236-.48-.634-.652-.886a14.652 14.652 0 01-1.132-2.04c-.124-.28-.307-.752-.41-1.047a15.215 15.215 0 01-.317-1.047c-.07-.28-.178-.79-.237-1.128a17.73 17.73 0 01-.162-1.45 11.577 11.577 0 01-.005-1.556c.032-.397.091-.977.14-1.289.048-.311.167-.875.264-1.261.097-.387.27-.95.382-1.262.113-.311.394-.94.62-1.396.226-.456.603-1.117.835-1.46.237-.344.625-.865.862-1.155.243-.29.69-.767.997-1.063a14.74 14.74 0 011.019-.89c.253-.2.69-.51.97-.699.28-.182.775-.478 1.104-.644.329-.172.787-.392 1.024-.494.237-.102.695-.274 1.024-.376a21.05 21.05 0 011.131-.327c.296-.07.733-.156.97-.194.237-.037.733-.096 1.105-.134.371-.037.77-.07.889-.075zm-2.344 2.008a14.381 14.381 0 00-1.886.574c-.221.086-.647.28-.943.43-.296.15-.695.37-.89.489-.193.118-.581.386-.861.595a13.9 13.9 0 00-1.073.919c-.307.295-.732.74-.943.993-.21.252-.554.708-.76 1.02-.204.311-.495.805-.646 1.1-.15.296-.377.79-.501 1.101-.119.311-.302.891-.404 1.289a14.726 14.726 0 00-.28 1.369c-.06.418-.092.982-.092 1.61.005.596.038 1.192.092 1.557.043.328.156.891.248 1.262.091.37.253.902.355 1.181.103.28.329.8.501 1.154.173.355.49.913.712 1.235.215.328.544.773.722.994a15.208 15.208 0 001.772 1.75c.205.16.62.456.916.655.297.193.841.504 1.213.687.372.188 1.04.456 1.482.601.447.15 1.061.322 1.374.381.312.06.808.14 1.104.172.329.038.965.054 1.617.032.776-.016 1.25-.059 1.697-.14.34-.064.884-.187 1.212-.273.33-.086.97-.23 1.428-.317a59.85 59.85 0 011.536-.268 52.3 52.3 0 011.643-.215 27.827 27.827 0 011.725-.14c.43-.02.813-.058.851-.085.049-.038.054-.215.032-.73a15.818 15.818 0 01.027-1.574c.038-.488.108-1.213.167-1.61.054-.398.173-1.053.264-1.45.092-.397.248-1.041.35-1.423.103-.38.243-1.014.308-1.396.107-.6.124-.88.124-2.013.005-1.143-.011-1.406-.124-2.013a14.357 14.357 0 00-.302-1.316 13.915 13.915 0 00-.463-1.288c-.162-.37-.442-.94-.63-1.262a12.904 12.904 0 00-.76-1.154 14.862 14.862 0 00-.954-1.122 12.89 12.89 0 00-1.073-.988c-.296-.242-.76-.574-1.023-.752a13.888 13.888 0 00-2.56-1.24 14.887 14.887 0 00-1.131-.322 14.978 14.978 0 00-1.202-.22 12.983 12.983 0 00-1.563-.075c-.506.005-1.169.037-1.465.08a13.26 13.26 0 00-.943.156z" fill="currentColor"/></svg><svg fill="none" viewBox="0 0 21 30" id="calculator" xmlns="http://www.w3.org/2000/svg"><path fill-rule="evenodd" clip-rule="evenodd" d="M1.434 0H19.56l.339.164c.22.111.435.281.61.48.152.177.322.452.384.628.101.293.107.498.107 9.097h-1.976v-.762H1.97v18.347h17.054V15.586H21l-.017 6.495c-.011 6.4-.011 6.495-.13 6.753a2.313 2.313 0 01-.367.545c-.147.17-.39.357-.926.621H1.434l-.34-.164a2.09 2.09 0 01-.61-.48 2.416 2.416 0 01-.383-.622c-.107-.305-.107-.58-.096-13.804C.022 1.46.022 1.43.14 1.166.202 1.02.366.774.507.621c.147-.17.39-.357.588-.457L1.434 0zm.536 7.562h17.054v-5.51H1.97v5.51zm17.054 4.572H21v1.817h-1.976v-1.817zm-14.682.293H6.43v2.051h-2.09v-2.051zm7.2.029l.028 2.022H9.424l-.011-.984c-.006-.546.017-1.009.04-1.032.027-.018.507-.03 2.088-.006zm3.02-.03h2.09v2.052h-2.09v-2.051zM4.342 17.82H6.43v2.051h-2.09V17.82zm5.082 0h2.146v2.051H9.424V17.82zm5.139 0h2.089v2.051h-2.09V17.82zM4.341 23.212H6.43v2.052h-2.09v-2.052zm5.082 0h2.146v2.052H9.424v-2.052zm5.139 0h2.089v2.052h-2.09v-2.052z" fill="currentColor"/></svg><svg fill="none" viewBox="0 0 25 26" id="calendar" xmlns="http://www.w3.org/2000/svg"><path d="M17.25 1v5M7.25 1v5M1 9.75h22.5M21 3.5H3.5A2.507 2.507 0 001 6v16.25c0 1.375 1.125 2.5 2.5 2.5H21c1.375 0 2.5-1.125 2.5-2.5V6c0-1.375-1.125-2.5-2.5-2.5z" stroke="currentColor" stroke-width="1.5" stroke-miterlimit="10" stroke-linecap="round" stroke-linejoin="round"/><path d="M6 14.375c-.125 0-.25.125-.25.375 0 .125.125.375.375.25.125 0 .25-.125.25-.375 0-.125-.125-.25-.375-.25zM12.25 14.375c-.125 0-.25.125-.25.375 0 .125.125.375.375.25.125 0 .25-.125.25-.375 0-.125-.125-.25-.375-.25zM18.5 14.375c-.125 0-.25.125-.25.375 0 .125.125.375.375.25.125 0 .25-.125.25-.375 0-.125-.125-.25-.375-.25zM6 19.375c-.125 0-.25.125-.25.375 0 .125.125.375.375.25.125 0 .25-.125.25-.375 0-.125-.125-.25-.375-.25zM12.25 19.375c-.125 0-.25.125-.25.375 0 .125.125.375.375.25.125 0 .25-.125.25-.375 0-.125-.125-.25-.375-.25z" stroke="currentColor" stroke-width="1.5" stroke-miterlimit="10" stroke-linecap="round" stroke-linejoin="round"/></svg><svg fill="none" viewBox="0 0 37 35" id="calendar-2" xmlns="http://www.w3.org/2000/svg"><path d="M22.695 4.375v2.917M10.591 4.375v2.917M4.54 11.667h24.207M28.747 14.583V8.75c0-1.604-1.361-2.917-3.026-2.917H7.565c-1.664 0-3.026 1.313-3.026 2.917V24.79c0 1.604 1.362 2.917 3.026 2.917h9.078" stroke="currentColor" stroke-width="1.5" stroke-miterlimit="10" stroke-linecap="round" stroke-linejoin="round"/><path d="M10.591 15.75c-.151 0-.302.146-.302.438 0 .145.15.291.454.291.15 0 .302-.146.302-.437 0-.146-.303-.292-.454-.292zM10.591 21.583c-.151 0-.302.146-.302.438 0 .145.15.291.454.291.15 0 .302-.146.302-.437 0-.146-.303-.292-.454-.292zM16.34 16.042c0 .146.152.292.454.292.152 0 .303-.146.303-.438 0-.146-.151-.292-.454-.292-.151.146-.302.292-.302.438zM26.175 30.187l6.658-6.417c.605-.583.605-1.458 0-2.041l-2.421-2.334a1.5 1.5 0 00-2.118 0l-6.658 6.417c-.302.292-.454.583-.454 1.02v3.793h3.934c.454 0 .757-.146 1.06-.438z" stroke="currentColor" stroke-width="1.5" stroke-miterlimit="10" stroke-linecap="round" stroke-linejoin="round"/></svg><svg fill="none" viewBox="0 0 35 35" id="call" xmlns="http://www.w3.org/2000/svg"><path d="M14.73 20.27c-1.75-1.75-3.063-3.645-3.792-5.54-.146-.438-.146-.876.292-1.168l1.166-1.166c1.021-1.021 1.021-2.334.146-3.209l-1.75-1.75c-1.167-1.166-2.917-1.166-4.083 0l-1.021 1.02a4.847 4.847 0 00-1.313 4.23c.73 3.792 2.917 8.021 6.563 11.521 3.5 3.5 7.73 5.834 11.52 6.563 1.605.291 3.063-.146 4.23-1.313l1.02-1.02c1.167-1.167 1.167-2.917 0-4.084l-1.75-1.75c-.874-.875-2.187-.875-3.062 0l-1.312 1.312c-.292.292-.73.438-1.167.292-2.042-1.02-3.937-2.188-5.687-3.938zM24.792 16.042a6.088 6.088 0 00-1.75-4.23 5.84 5.84 0 00-4.229-1.75M30.77 16.042c0-3.063-1.166-5.98-3.5-8.313-2.333-2.333-5.25-3.5-8.312-3.5" stroke="currentColor" stroke-width="1.5" stroke-miterlimit="10" stroke-linecap="round" stroke-linejoin="round"/></svg><svg fill="none" viewBox="0 0 18 18" id="capacity" xmlns="http://www.w3.org/2000/svg"><path d="M10.875 12.75h-3.75a1.857 1.857 0 01-1.875-1.875v-3.75c0-1.05.825-1.875 1.875-1.875h3.75c1.05 0 1.875.825 1.875 1.875v3.75c0 1.05-.825 1.875-1.875 1.875zM13.5 15.75v-1.5c0-.45.3-.75.75-.75h1.5M4.5 2.25v1.5c0 .45-.3.75-.75.75h-1.5M2.25 13.5h1.5c.45 0 .75.3.75.75v1.5M15.75 4.5h-1.5c-.45 0-.75-.3-.75-.75v-1.5" stroke="currentColor" stroke-miterlimit="10" stroke-linecap="round" stroke-linejoin="round"/></svg><svg fill="none" viewBox="0 0 20 20" id="car" xmlns="http://www.w3.org/2000/svg"><path d="M1 14.395v-3.798c0-1.194.956-2.17 2.125-2.17h12.75c1.168 0 2.125.976 2.125 2.17v5.318c0 .65-.425 1.085-1.063 1.085h-2.125c-.637 0-1.062-.434-1.062-1.085v-1.086h-8.5v1.086c0 .65-.425 1.085-1.063 1.085H2.062C1.425 17 1 16.566 1 15.915v-1.52z" stroke="currentColor" stroke-width="1.5" stroke-linecap="round" stroke-linejoin="round"/><path d="M3.125 8.426l.85-3.798A2.057 2.057 0 015.994 3H12.9c.956 0 1.912.76 2.125 1.737l.743 3.798M14.705 11.574H12.58M6.312 11.573H4.187M15.875 8.318L18 7.232M3.125 8.318L1 7.232" stroke="currentColor" stroke-width="1.5" stroke-linecap="round" stroke-linejoin="round"/></svg><svg fill="none" viewBox="0 0 10 6" id="chevron" xmlns="http://www.w3.org/2000/svg"><path d="M1 1l4 4 4-4" stroke="currentColor"/></svg><svg fill="none" viewBox="0 0 10 7" id="chevron-bold" xmlns="http://www.w3.org/2000/svg"><path d="M.813 1.25l4 4 4-4" stroke="currentColor" stroke-width="2"/></svg><svg fill="none" viewBox="0 0 29 29" id="circular-arrows" xmlns="http://www.w3.org/2000/svg"><path d="M28.048 9.365c-.181-.453-.68-.725-1.179-.544-.453.181-.725.68-.544 1.179 1.179 3.174 1.088 6.62-.317 9.704-1.406 3.084-3.9 5.441-7.074 6.62-3.175 1.18-6.62 1.089-9.704-.317a12.892 12.892 0 01-2.993-1.905c.725 0 1.542 0 2.358-.18a.885.885 0 00.725-1.044.885.885 0 00-1.043-.725c-1.632.272-3.22.045-4.126-.136a1.013 1.013 0 00-.952.09c-.091.091-.182.182-.227.318v.045c0 .045-.045.09-.045.136a1.105 1.105 0 000 .544c.226.771.77 2.993.544 4.353-.091.5.272.953.77 1.043h.137c.453 0 .816-.317.907-.77a8.38 8.38 0 000-2.132 16.058 16.058 0 003.22 2.04A14.54 14.54 0 0014.49 29c1.723 0 3.446-.317 5.124-.952 3.627-1.36 6.484-4.081 8.117-7.573 1.541-3.537 1.678-7.482.317-11.11zM2.927 9.275C5.83 2.88 13.357.069 19.705 2.926c1.043.499 2.04 1.088 2.902 1.814-.725 0-1.542 0-2.313.181a.885.885 0 00-.725 1.043.885.885 0 001.043.726c1.768-.318 3.446-.046 4.308.181H25.373c.046 0 .09 0 .09-.045 0 0 .046 0 .046-.045.046 0 .046-.046.091-.046s.045-.045.09-.045h.046l.045-.046.046-.045c.045-.045.09-.136.136-.181.045-.046.045-.136.045-.182v-.045V5.964c0-.09 0-.136-.045-.226-.227-.726-.771-2.993-.544-4.354.09-.498-.273-.952-.771-1.043-.5-.09-.953.272-1.043.771-.09.68-.09 1.406 0 2.132-.953-.771-1.995-1.406-3.13-1.95-7.3-3.31-15.916-.046-19.18 7.255-1.588 3.537-1.724 7.482-.363 11.11a.93.93 0 00.861.59c.091 0 .227 0 .318-.046.453-.181.725-.68.544-1.18-1.224-3.219-1.134-6.665.272-9.748z" fill="currentColor"/><path d="M11.407 24.964c.998.272 1.995.454 3.038.454 4.217 0 8.208-2.449 9.976-6.44 1.225-2.675 1.315-5.622.272-8.343a.626.626 0 00-.77-.363.626.626 0 00-.363.771 9.82 9.82 0 01-.227 7.437c-1.995 4.398-6.938 6.666-11.563 5.35-.318-.09-.68.091-.771.409-.09.317.09.635.408.725zM17.03 5.103c.317.09.634-.09.725-.408a.582.582 0 00-.408-.726C12.132 2.563 6.737 5.103 4.514 10c-1.224 2.675-1.315 5.623-.272 8.344.09.226.318.408.59.408.09 0 .136 0 .226-.045a.626.626 0 00.363-.771 9.82 9.82 0 01.227-7.437A9.613 9.613 0 0117.03 5.103z" fill="currentColor"/></svg><svg fill="none" viewBox="0 0 20 20" id="clock" xmlns="http://www.w3.org/2000/svg"><path d="M15.657 12.343A6.123 6.123 0 104.343 7.657a6.123 6.123 0 0011.314 4.686zM3.406 4.49l2.296-1.914M16.57 4.49l-2.297-1.914" stroke="currentColor" stroke-width="1.5" stroke-miterlimit="10" stroke-linecap="round" stroke-linejoin="round"/><path d="M9.834 7.245v3.214l2.45 1.454" stroke="currentColor" stroke-width="1.5" stroke-miterlimit="10" stroke-linecap="round" stroke-linejoin="round"/></svg><svg fill="none" viewBox="0 0 15 13" id="close" xmlns="http://www.w3.org/2000/svg"><path d="M1.667.824l11.666 11.212M13.333.824L1.667 12.036" stroke="currentColor" stroke-width="1.5" stroke-linecap="round" stroke-linejoin="round"/></svg><svg fill="none" viewBox="0 0 35 35" id="contract" xmlns="http://www.w3.org/2000/svg"><path d="M11.666 5.833L13.563 3.5c.292-.292.73-.583 1.167-.583h5.541c.438 0 .876.145 1.167.583l1.896 2.333v1.458c0 .875-.583 1.459-1.458 1.459h-8.75c-.875 0-1.459-.584-1.459-1.458V5.832v0zM14.146 13.562l-2.48 2.48-1.457-1.46M18.959 26.25h4.375" stroke="currentColor" stroke-width="1.5" stroke-linecap="round" stroke-linejoin="round"/><path d="M18.959 14.584h4.375" stroke="currentColor" stroke-width="1.5" stroke-miterlimit="10" stroke-linecap="round" stroke-linejoin="round"/><path d="M14.146 19.395l-2.48 2.48-1.457-1.459" stroke="currentColor" stroke-width="1.5" stroke-linecap="round" stroke-linejoin="round"/><path d="M18.959 20.416h4.375" stroke="currentColor" stroke-width="1.5" stroke-miterlimit="10" stroke-linecap="round" stroke-linejoin="round"/><path d="M23.334 5.833h2.916a2.925 2.925 0 012.917 2.917v20.417a2.925 2.925 0 01-2.917 2.916H8.75a2.925 2.925 0 01-2.917-2.916V8.75A2.925 2.925 0 018.75 5.833h2.917" stroke="currentColor" stroke-width="1.5" stroke-linecap="round" stroke-linejoin="round"/></svg><svg viewBox="0 0 33.34 22.89" id="delivery" xmlns="http://www.w3.org/2000/svg"><path d="M1.67.9a2.25 2.25 0 00-.73.71c-.27.44-.27.68-.27 8.17 0 6.88 0 7.76.23 8.14.36.68.8.89 2.08 1l1.15.07.1.6a3.38 3.38 0 001.51 2.21 2.39 2.39 0 001.68.41 2.39 2.39 0 001.68-.41 3.41 3.41 0 001.57-2.25l.1-.6h12.9l.1.6a3.22 3.22 0 003 2.66 3.15 3.15 0 003.42-2.72c.07-.53.09-.54.69-.61a2.92 2.92 0 001-.3c.71-.47.74-.68.79-4.87 0-3.42 0-3.92-.19-4.28s-3-3.84-3.83-4.65S27.42 4 24.19 4H21.5v-.94a2.29 2.29 0 00-.73-2l-.36-.33-9.14-.06c-8.72 0-9.16 0-9.6.23zM20.1 2.05l.33.33v10.2H1.8V7.45c0-5.29 0-5.45.53-5.63.11 0 4.08-.08 8.82-.08h8.62zm7.8 3.62c.68.71 3.52 4.16 3.52 4.28s-2.23.11-5 .11h-5V5.21h6zm3.66 6.32v.68h-1.24c-1.18 0-1.25.05-1.29.34-.08.57.19.7 1.4.7h1.13v1.74c0 1.57 0 1.77-.27 2a1.06 1.06 0 01-.74.27c-.37 0-.5-.07-.65-.37a4.3 4.3 0 00-1.49-1.41 3.33 3.33 0 00-4.23 1.32l-.29.46H21.5v-6.48h10.06zm-7.69.43a2.68 2.68 0 00-.09.88v.78h1.21v-1.77h-.52a1.56 1.56 0 00-.6.09zm-3.44 3.4v2h-9.85l-.47-.63a3.22 3.22 0 00-2.06-1.39 3.28 3.28 0 00-3.44 1.56c-.29.46-.29.46-1.28.46-1.17 0-1.53-.23-1.53-1v-.46h.75c.85-.05 1.18-.31.91-.74-.11-.17-.36-.25-.91-.28H1.8v-1.55h18.63zM8.28 17.06a2.59 2.59 0 01.79.6 2.12 2.12 0 01-1.08 3.36 2.11 2.11 0 11.29-4zm19.79.11A2.1 2.1 0 0127 21.08a2.1 2.1 0 111.07-3.91z" fill="currentColor" fill-rule="evenodd"/><path d="M1.51.61h0c.3-.17.6-.23 1.85-.26s3.55 0 7.91 0H20.54l.13.12.36.34a2.34 2.34 0 01.66 1 3.55 3.55 0 01.18 1.3v.56h2.34a21 21 0 013.25.14 2.74 2.74 0 01.85.27 2.31 2.31 0 01.6.47c.41.42 1.31 1.48 2.14 2.49.41.5.81 1 1.12 1.39a6.78 6.78 0 01.62.84 2.44 2.44 0 01.23 1.14v3.3a32.27 32.27 0 01-.15 3.88 1.93 1.93 0 01-.28.81 1.7 1.7 0 01-.51.46h0a2.38 2.38 0 01-.51.22 3.4 3.4 0 01-.6.13M1.51.61a2.06 2.06 0 00-.49.36 2.07 2.07 0 00-.35.47l.29.17-.29-.17a1.3 1.3 0 00-.19.51 7 7 0 00-.12 1.09v13.25c0 .57 0 .94.07 1.2a1.66 1.66 0 00.15.58 1.78 1.78 0 00.85.86 4.21 4.21 0 001.51.29l.88.05M30.94 19.21v-.33m0 .33h0v-.33m0 .33l-.32.05h0m.31-.39c-.6.07-.62.08-.69.61m.38-.22h0zm0 0h0a1.47 1.47 0 00-.05.26m0 0h0-.33m.33 0a3.47 3.47 0 01-3.77 3 3.54 3.54 0 01-3.29-2.94h0l-.06-.31m7.12.24h-.33m-6.79-.2l6.79.2-6.79-.2h.22v-.34m-.29.34l.39.26-.1-.6m-.29.34v-.28l.33-.06m-.29.34H11m12.67-.36h-13m0 0l.33.06-.05.28m-.28-.34v.34h.28m-7.15 0l6.87-.32.28.34-.05.31h0a3.79 3.79 0 01-1.66 2.45h0a2.58 2.58 0 01-.82.37 4.33 4.33 0 01-1 .08 4.29 4.29 0 01-1-.08 2.58 2.58 0 01-.82-.37h0a3.72 3.72 0 01-1.66-2.45h0l-.06-.33m0 0h.27v-.33l-.33.06zm18-15.27h-.34v-.35z" fill="none" stroke="currentColor" stroke-width=".67"/></svg><svg fill="none" viewBox="0 0 18 18" id="diameter" xmlns="http://www.w3.org/2000/svg"><path d="M18 0H0v18h18V0z" fill="#fff"/><path d="M9 15.75a6.75 6.75 0 100-13.5 6.75 6.75 0 000 13.5z" fill="#fff" stroke="currentColor" stroke-linecap="round" stroke-linejoin="round"/><path d="M6 12l6-6" stroke="currentColor" stroke-linecap="round" stroke-linejoin="round"/></svg><svg fill="none" viewBox="0 0 18 18" id="dimensions" xmlns="http://www.w3.org/2000/svg"><path d="M5.25 15.75h-3v-3M2.25 5.25v-3h3M15.75 12.75v3h-3M15.75 15.75L2.25 2.25M15.75 2.25l-13.5 13.5M12.75 2.25h3v3" stroke="currentColor" stroke-miterlimit="10" stroke-linecap="round" stroke-linejoin="round"/></svg><svg fill="none" viewBox="0 0 18 18" id="drop" xmlns="http://www.w3.org/2000/svg"><path d="M12.525 6.525a4.98 4.98 0 010 7.05 4.98 4.98 0 01-7.05 0 4.98 4.98 0 010-7.05M5.476 6.525L9 3M12.525 6.525L9 3" stroke="currentColor" stroke-miterlimit="10" stroke-linecap="round" stroke-linejoin="round"/></svg><svg fill="none" viewBox="0 0 18 18" id="dropping" xmlns="http://www.w3.org/2000/svg"><path d="M9.75 14.25h-4.5c-.825 0-1.5-.675-1.5-1.5v-9M8.25 3.75h4.5c.825 0 1.5.675 1.5 1.5v9" stroke="currentColor" stroke-miterlimit="10" stroke-linecap="round" stroke-linejoin="round"/><path d="M5.625 5.625L3.75 3.75 1.875 5.625M12 12l2.25 2.25L16.5 12" stroke="currentColor" stroke-linecap="round" stroke-linejoin="round"/></svg><svg viewBox="0 0 495.468 495.468" id="energy-class" xmlns="http://www.w3.org/2000/svg"><g fill="currentColor"><path d="M297.084 163.712h62.76a5.998 5.998 0 004.1-1.62l21.6-20.16a6 6 0 000-8.77l-21.6-20.17a5.999 5.999 0 00-4.1-1.61h-62.76a6 6 0 00-6 6v40.33a6 6 0 006 6zm6-40.33h54.4l15.17 14.16-15.17 14.17h-54.4zm-6 97.79h84.37a6.003 6.003 0 004.09-1.62l21.61-20.16a6 6 0 000-8.78l-21.6-20.16a6 6 0 00-4.09-1.61h-84.38a6 6 0 00-6 6v40.33a6 6 0 006 6zm6-40.33h76l15.18 14.16-15.18 14.17h-76zm-6 97.78h106a5.998 5.998 0 004.1-1.62l21.55-20.16a6.05 6.05 0 000-8.78l-21.6-20.16a5.998 5.998 0 00-4.1-1.62h-106a6 6 0 00-6 6v40.34a6 6 0 006 6zm6-40.34h97.65l15.17 14.17-15.17 14.17h-97.65zm-6 97.78h127.58a6 6 0 004.09-1.61l21.6-20.17a6 6 0 000-8.77l-21.62-20.16a6.003 6.003 0 00-4.09-1.62h-127.56a6 6 0 00-6 6v40.33a6 6 0 006 6zm6-40.33h119.21l15.18 14.17-15.18 14.16h-119.21zm-6 97.78h149.18a6 6 0 004.09-1.61l21.61-20.19a6 6 0 000-8.77l-21.61-20.16a6.003 6.003 0 00-4.09-1.62h-149.18a6 6 0 00-6 6v40.35a6 6 0 006 6zm6-40.33h140.82l15.17 14.17-15.17 14.16h-140.82zm168.88 47.06a5.999 5.999 0 00-4.1-1.61h-170.78a6 6 0 00-6 6v40.33a6 6 0 006 6h170.78a5.999 5.999 0 004.1-1.61l21.6-20.17a6 6 0 000-8.77zm-6.46 38.72h-162.42v-28.33h162.42l15.23 14.17zm-444.6-105.25a6 6 0 004.23-1.75l17.84-17.79v129.38a6 6 0 006 6h223.21c7.88-.25 8-11.71 0-12h-14.7v-109.49c-.017-10.861-8.82-19.659-19.68-19.67h-56.67c-10.861.011-19.663 8.81-19.68 19.67v109.49H54.974v-135.39l123.62-123.32 89.35 89.13a6.003 6.003 0 108.48-8.5l-93.59-93.35a6 6 0 00-8.47 0l-155.63 155.29c-6.46-1.41-9-10.31-4-14.91l164-165.94 89.32 90.4c5.7 5.45 14-2.58 8.54-8.43l-93.73-94.72a6 6 0 00-8.485-.045l-.045.045-84.1 85.11-1.28-24.12a6 6 0 00-6-5.68h-32.22a6 6 0 00-6 5.85l-1.79 68.29a5.918 5.918 0 00.64 2.85l-37.45 37.93c-13.18 12.89-3.67 35.85 14.77 35.67zm152.55-5.61a7.69 7.69 0 017.68-7.67h56.67a7.69 7.69 0 017.68 7.67v109.45h-72zm-116.85-132.98h20.67l1.46 27.85c.03.453.107.902.23 1.34l-23.75 24.06z"/><path d="M84.734 293.862a6 6 0 00-6 6v74.34a6 6 0 006 6h54.34a6 6 0 006-6v-74.34a6 6 0 00-6-6zm48.34 74.34h-42.34v-62.34h42.34zm57.3 5.99a7.37 7.37 0 00-7.37 7.36c.34 9.75 14.39 9.75 14.73 0a7.37 7.37 0 00-7.36-7.36zm-131.89-238.97a6 6 0 00.4-8.47c-6.86-7.54-11.67-21.31 4.38-44.14 12.75-18.14 33.77-23.9 49.38-25.57-8.77 8-16.84 20.88-12.69 40 5.13 22.23-6.45 32.8-25 35.11a155.323 155.323 0 0114.46-38.87c3.54-7.07-6.59-12.57-10.57-5.68-12.71 23.62-19.65 50.95-20.11 79.11a6 6 0 1012 .2c.129-7.534.761-15.05 1.89-22.5 7.76-.44 22.12-2.73 31.7-13.07 8.25-8.91 10.73-21.29 7.37-36.79-2.29-10.57-.86-25.29 19-35.43 7-3.57 4.63-14.32-3.27-14.56-15.3-.48-53.14 1.58-74 31.19-21.69 30.83-11.45 50.25-3.41 59.08a6 6 0 008.47.39z"/></g></svg><svg fill="none" viewBox="0 0 35 35" id="estimate" xmlns="http://www.w3.org/2000/svg"><path d="M18.959 23.334h5.833M10.209 22.896l1.458 1.313 2.625-2.48M18.959 16.041h5.833M10.209 15.605l1.458 1.312 2.625-2.48" stroke="currentColor" stroke-width="1.5" stroke-linecap="round" stroke-linejoin="round"/><path d="M27.708 5.833H7.292A2.925 2.925 0 004.375 8.75V27.71a2.925 2.925 0 002.917 2.916h20.416a2.925 2.925 0 002.917-2.916V8.75a2.925 2.925 0 00-2.917-2.917zM23.333 4.375V8.75M17.5 4.375V8.75M11.667 4.375V8.75" stroke="currentColor" stroke-width="1.5" stroke-miterlimit="10" stroke-linecap="round" stroke-linejoin="round"/></svg><svg fill="none" viewBox="0 0 20 20" id="gift" xmlns="http://www.w3.org/2000/svg"><path clip-rule="evenodd" d="M18 6H2c-.6 0-1 .4-1 1v2c0 .6.4 1 1 1h16c.6 0 1-.4 1-1V7c0-.6-.4-1-1-1z" stroke="currentColor" stroke-width="2" stroke-linecap="round" stroke-linejoin="round"/><path d="M10 19V6M13.7 4.6C12.6 5.7 10.9 6 10.1 6M10.1 6s-.5-3.1.7-4.4M13.7 4.6c.8-.8.8-2.2 0-3-.8-.8-2.1-.8-2.9 0M6.3 4.6C7.4 5.7 9.1 6 9.9 6M9.9 6s.5-3.1-.7-4.4M6.3 4.6c-.8-.8-.8-2.2 0-3 .8-.8 2.1-.8 2.9 0M17 10v8c0 .6-.4 1-1 1H4c-.6 0-1-.4-1-1v-8" stroke="currentColor" stroke-width="2" stroke-linecap="round" stroke-linejoin="round"/></svg><svg fill="none" viewBox="0 0 30 30" id="grid-view" xmlns="http://www.w3.org/2000/svg"><path clip-rule="evenodd" d="M9.75 12.25h-3.5a2.507 2.507 0 01-2.5-2.5v-3.5c0-1.375 1.125-2.5 2.5-2.5h3.5c1.375 0 2.5 1.125 2.5 2.5v3.5c0 1.375-1.125 2.5-2.5 2.5zM23.75 12.25h-3.5a2.507 2.507 0 01-2.5-2.5v-3.5c0-1.375 1.125-2.5 2.5-2.5h3.5c1.375 0 2.5 1.125 2.5 2.5v3.5c0 1.375-1.125 2.5-2.5 2.5zM9.75 26.25h-3.5a2.507 2.507 0 01-2.5-2.5v-3.5c0-1.375 1.125-2.5 2.5-2.5h3.5c1.375 0 2.5 1.125 2.5 2.5v3.5c0 1.375-1.125 2.5-2.5 2.5zM23.75 26.25h-3.5a2.507 2.507 0 01-2.5-2.5v-3.5c0-1.375 1.125-2.5 2.5-2.5h3.5c1.375 0 2.5 1.125 2.5 2.5v3.5c0 1.375-1.125 2.5-2.5 2.5z" stroke="currentColor" stroke-width="1.5" stroke-miterlimit="10" stroke-linecap="round" stroke-linejoin="round"/></svg><svg fill="none" viewBox="0 0 30 30" id="guarantee" xmlns="http://www.w3.org/2000/svg"><path d="M11.25 6.875h7.5M22.5 11.25h-15M7.5 18.125h3.75" stroke="currentColor" stroke-width="1.5" stroke-linecap="round" stroke-linejoin="round"/><path d="M18.75 22.5a3.75 3.75 0 100-7.5 3.75 3.75 0 000 7.5z" stroke="currentColor" stroke-width="1.5" stroke-miterlimit="10" stroke-linecap="round" stroke-linejoin="round"/><path d="M21.25 21.5v6l-2.5-1.25-2.5 1.25v-6" stroke="currentColor" stroke-width="1.5" stroke-miterlimit="10" stroke-linecap="round" stroke-linejoin="round"/><path d="M21.25 23.75H25c1.375 0 2.5-1.125 2.5-2.5V5c0-1.375-1.125-2.5-2.5-2.5H5A2.507 2.507 0 002.5 5v16.25c0 1.375 1.125 2.5 2.5 2.5h11.25" stroke="currentColor" stroke-width="1.5" stroke-linecap="round" stroke-linejoin="round"/></svg><svg fill="none" viewBox="0 0 36 35" id="guarantee-2" xmlns="http://www.w3.org/2000/svg"><path d="M9.11 20.125l-4.63 4.667 3.734 2.188 2.24 3.645 5.825-5.979M19.564 24.646l5.825 5.98 2.24-3.646 3.734-2.188-4.63-4.667" stroke="currentColor" stroke-width="1.5" stroke-miterlimit="10" stroke-linecap="round" stroke-linejoin="round"/><path d="M17.922 24.792c5.773 0 10.454-4.57 10.454-10.209 0-5.638-4.68-10.208-10.454-10.208-5.774 0-10.455 4.57-10.455 10.208s4.68 10.209 10.455 10.209z" stroke="currentColor" stroke-width="1.5" stroke-miterlimit="10" stroke-linecap="round" stroke-linejoin="round"/><path d="M17.922 18.375l2.688 1.313c.448.292 1.195-.146 1.045-.73l-.448-2.916L23.447 14c.448-.437.15-1.167-.448-1.167l-2.986-.437-1.345-2.625c-.298-.583-1.045-.583-1.344 0l-1.344 2.625-2.987.437c-.597.146-.747.73-.448 1.168l2.24 2.041-.448 2.917c-.15.583.448 1.02 1.046.729l2.539-1.313z" stroke="currentColor" stroke-width="1.5" stroke-linecap="round" stroke-linejoin="round"/></svg><svg fill="none" viewBox="0 0 37 35" id="house" xmlns="http://www.w3.org/2000/svg"><path d="M6.052 12.541v18.083H30.26V12.541" stroke="currentColor" stroke-width="1.5" stroke-miterlimit="10" stroke-linecap="round" stroke-linejoin="round"/><path d="M3.026 14.583l15.13-10.208 15.13 10.208M22.695 30.625v-8.75c0-1.605-1.361-2.917-3.026-2.917h-3.026c-1.664 0-3.026 1.313-3.026 2.917v8.75" stroke="currentColor" stroke-width="1.5" stroke-miterlimit="10" stroke-linecap="round" stroke-linejoin="round"/></svg><svg fill="none" viewBox="0 0 30 29" id="installation" xmlns="http://www.w3.org/2000/svg"><path d="M28.2 23.02l-7.518-7.518c1.902-4.077 1.268-9.06-2.083-12.321C16.153.735 12.802-.352 9.269.1c-.362.09-.634.271-.725.634-.09.362 0 .724.182.906l4.347 4.348a.705.705 0 01.182.725l-1.178 4.53a.817.817 0 01-.543.543l-4.53 1.178a.704.704 0 01-.724-.181l-4.53-4.53c-.27-.272-.543-.362-.905-.181-.362.09-.543.362-.634.725-.725 3.533.453 7.247 2.99 9.784 2.082 2.083 4.89 3.17 7.698 3.17 1.63 0 3.17-.362 4.71-1.087l7.519 7.52c.543.543 1.177.815 1.902.815.725 0 1.45-.272 1.902-.815l1.268-1.269c.544-.543.816-1.177.816-1.902a2.81 2.81 0 00-.816-1.993zM4.468 17.224a8.913 8.913 0 01-2.627-6.342l3.17 3.171c.635.634 1.631.906 2.446.634l4.53-1.178c.905-.271 1.54-.905 1.811-1.811l1.178-4.53c.271-.906 0-1.812-.635-2.446l-2.898-2.9c2.174.182 4.257 1.088 5.797 2.628a9.023 9.023 0 010 12.774 9.02 9.02 0 01-12.772 0zm22.464 8.425l-1.268 1.268a.875.875 0 01-1.268 0l-7.247-7.247c.453-.363.997-.725 1.36-1.178.452-.453.814-.906 1.177-1.359l7.246 7.248a.822.822 0 01.272.634c0 .272-.09.453-.272.634z" fill="currentColor"/><path d="M20.41 19.76a.438.438 0 00-.634 0 .438.438 0 000 .634l4.53 4.53c.09.09.18.09.362.09.18 0 .271 0 .362-.09a.438.438 0 000-.635l-4.62-4.53zM6.099 11.425c.271.271.724.453 1.087.453.09 0 .271 0 .362-.091l2.446-.634a1.633 1.633 0 001.087-1.087l.634-2.446c.18-.544 0-1.087-.363-1.45L9.541 4.358c-.363-.362-.906-.543-1.45-.362l-2.445.634a1.633 1.633 0 00-1.087 1.087l-.634 2.446c-.181.544 0 1.087.362 1.45l1.812 1.812zm-.725-5.527c.09-.18.181-.362.453-.453l2.446-.634c.18-.09.452 0 .634.181l1.811 1.812c.181.181.181.363.181.634l-.634 2.447c-.09.18-.18.362-.453.453l-2.445.634c-.181.09-.453 0-.634-.181L4.92 8.979c-.181-.182-.181-.363-.181-.635l.634-2.446z" fill="currentColor"/><path d="M7.82 9.703c.996 0 1.811-.815 1.811-1.812 0-.996-.815-1.811-1.811-1.811-.997 0-1.812.815-1.812 1.811 0 .997.815 1.812 1.812 1.812zm0-2.717c.543 0 .906.362.906.905 0 .544-.363.906-.906.906-.544 0-.906-.362-.906-.906 0-.543.453-.905.906-.905z" fill="currentColor"/></svg><svg fill="none" viewBox="0 0 30 30" id="letters" xmlns="http://www.w3.org/2000/svg"><path d="M9.25 6.25H24.5c.875 0 1.75.75 1.75 1.75v10c0 .875-.75 1.75-1.75 1.75H9.25C8.375 19.75 7.5 19 7.5 18V8c.125-1 .875-1.75 1.75-1.75z" stroke="currentColor" stroke-width="1.5" stroke-miterlimit="10" stroke-linecap="round" stroke-linejoin="round"/><path d="M7.75 7.375l7.75 5.5c.875.625 2 .625 2.875 0l7.75-5.5M20.75 23.75H6.25a2.507 2.507 0 01-2.5-2.5V12" stroke="currentColor" stroke-width="1.5" stroke-miterlimit="10" stroke-linecap="round" stroke-linejoin="round"/></svg><svg fill="none" viewBox="0 0 20 20" id="location" xmlns="http://www.w3.org/2000/svg"><path d="M4 8.311v-.178C4 4.756 6.696 2 10 2s6 2.756 6 6.133v.178c0 3.111-3.826 7.733-5.304 9.422a.93.93 0 01-1.305 0C7.826 16.044 4 11.423 4 8.311z" stroke="currentColor" stroke-width="1.5" stroke-miterlimit="10" stroke-linecap="round" stroke-linejoin="round"/><path d="M8.262 8.31c0 .979.782 1.779 1.739 1.779.956 0 1.739-.8 1.739-1.778S10.957 6.533 10 6.533c-.956-.089-1.738.711-1.738 1.778z" stroke="currentColor" stroke-width="1.5" stroke-miterlimit="10" stroke-linecap="round" stroke-linejoin="round"/></svg><svg fill="none" viewBox="0 0 20 20" id="mail" xmlns="http://www.w3.org/2000/svg"><path d="M3.43 4h13.14c.804 0 1.43.558 1.43 1.275v8.45c0 .717-.626 1.275-1.43 1.275H3.43C2.626 15 2 14.442 2 13.725v-8.45C2 4.638 2.626 4 3.43 4z" stroke="currentColor" stroke-width="1.5" stroke-miterlimit="10" stroke-linecap="round" stroke-linejoin="round"/><path d="M2.09 4.877l6.883 4.384c.625.399 1.43.399 2.055 0l6.883-4.384" stroke="currentColor" stroke-width="1.5" stroke-miterlimit="10" stroke-linecap="round" stroke-linejoin="round"/></svg><svg fill="none" viewBox="0 0 35 35" id="materials" xmlns="http://www.w3.org/2000/svg"><path d="M27.708 30.625h-7.292a2.925 2.925 0 01-2.916-2.917v-7.291a2.925 2.925 0 012.916-2.917h7.292a2.925 2.925 0 012.917 2.917v7.291a2.925 2.925 0 01-2.917 2.917zM14.583 30.625H7.291a2.925 2.925 0 01-2.916-2.917v-7.291A2.925 2.925 0 017.29 17.5h7.292a2.925 2.925 0 012.917 2.917v7.291a2.925 2.925 0 01-2.917 2.917zM21.146 17.5h-7.292a2.925 2.925 0 01-2.916-2.917V7.292a2.925 2.925 0 012.916-2.917h7.292a2.925 2.925 0 012.916 2.917v7.291a2.925 2.925 0 01-2.916 2.917zM8.75 26.25h2.917M14.584 13.125H17.5M21.875 26.25h2.917" stroke="currentColor" stroke-width="1.5" stroke-miterlimit="10" stroke-linecap="round" stroke-linejoin="round"/></svg><svg fill="none" viewBox="0 0 35 35" id="measuring" xmlns="http://www.w3.org/2000/svg"><path d="M16.625 22.75l7.292 7.292c.583.583 1.604.583 2.188 0l3.937-3.938c.584-.583.584-1.604 0-2.187l-7.291-7.292M27.271 12.104L22.896 7.73M18.521 12.25L11.23 4.958c-.583-.583-1.604-.583-2.187 0L5.104 8.896c-.583.583-.583 1.604 0 2.187l7.292 7.292" stroke="currentColor" stroke-width="1.5" stroke-miterlimit="10" stroke-linecap="round" stroke-linejoin="round"/><path d="M4.813 28.292l1.021-3.208c.146-.438.437-.875.73-1.167L25.958 4.52c.583-.583 1.458-.583 2.042 0l2.333 2.333c.583.584.583 1.459 0 2.042L10.938 28.292c-.292.292-.73.583-1.167.73l-3.208 1.02c-1.02.583-2.042-.583-1.75-1.75z" stroke="currentColor" stroke-width="1.5" stroke-miterlimit="10" stroke-linecap="round" stroke-linejoin="round"/></svg><svg fill="none" viewBox="0 0 20 20" id="minibus" xmlns="http://www.w3.org/2000/svg"><path d="M2.79 10.9H1M11.738 10.9h1.79M11.738 10.9l-1.074 1.53c-.537.72-1.342 1.17-2.236 1.17H6.011c-.895 0-1.7-.45-2.237-1.17L2.7 10.9M18 1v1.8M18 6.4v1.8M18 11.8v1.8M18 17.2V19" stroke="currentColor" stroke-width="1.5" stroke-miterlimit="10" stroke-linecap="round" stroke-linejoin="round"/><path d="M9.052 19H5.473c-1.52 0-2.684-1.17-2.684-2.7V5.5c0-.99.805-1.8 1.79-1.8h5.368a1.8 1.8 0 011.79 1.8v10.8c0 1.53-1.164 2.7-2.685 2.7zM11.736 7.3H2.79" stroke="currentColor" stroke-width="1.5" stroke-miterlimit="10" stroke-linecap="round" stroke-linejoin="round"/></svg><svg viewBox="0 0 512 512" id="no-fire" xmlns="http://www.w3.org/2000/svg"><path d="M256 0C114.833 0 0 114.844 0 256s114.833 256 256 256 256-114.844 256-256S397.167 0 256 0zm0 490.667C126.604 490.667 21.333 385.396 21.333 256c0-60.866 23.488-116.212 61.628-157.956L214.447 229.53c-.604 8.756-.953 17.164-1.051 24.335-22.583-9.552-29.646-47.958-29.729-48.406a10.71 10.71 0 00-5.667-7.656 10.569 10.569 0 00-9.521-.083c-1.563.76-38.25 19.542-40.313 92.646-.166 2.447-.166 4.915-.166 7.374 0 71.094 57.417 128.927 128 128.927 42.223 0 79.62-20.786 102.948-52.635l55.008 55.008c-41.744 38.138-97.09 61.627-157.956 61.627zm87.68-131.904c-19.268 28.077-51.342 46.57-87.68 46.57-58.813 0-106.667-48.271-106.667-107.594 0-2 0-3.99.146-6.375.979-34.938 10.292-54.365 17.979-64.542 7.083 20.24 23.25 50.51 56.542 50.51a10.66 10.66 0 0010.667-10.667c0-5.405.043-11.034.163-16.754l108.85 108.852zM236.582 221.499c.977-9.714 2.322-19.418 4.668-28.749 3.021-12.104 13.854-48.792 38.333-75.073 5.792 27.25 21.833 48.333 37.438 68.854 20.438 26.875 41.583 54.656 44.979 99.229l.229 3.333c.229 2.813.438 5.615.438 8.646 0 14.721-2.974 28.749-8.303 41.54l-117.782-117.78zm192.457 192.457l-58.664-58.664C379.016 337.943 384 318.436 384 297.74c0-3.583-.229-6.906-.479-10.229l-.229-3.25c-3.896-50.969-28-82.677-49.292-110.646-18.958-24.927-35.333-46.458-35.333-77.615 0-4-2.25-7.677-5.813-9.5-3.521-1.833-7.854-1.51-11.104.854-40.833 29.469-57.167 84.135-61.208 100.198-1.223 4.882-2.147 9.901-2.99 14.917L98.044 82.961C139.788 44.822 195.134 21.333 256 21.333c129.396 0 234.667 105.271 234.667 234.667 0 60.866-23.489 116.212-61.628 157.956z" fill="currentColor"/></svg><svg fill="none" viewBox="0 0 30 30" id="payment" xmlns="http://www.w3.org/2000/svg"><path d="M14.375 16.375a3.125 3.125 0 100-6.25 3.125 3.125 0 000 6.25z" stroke="currentColor" stroke-width="1.5" stroke-linecap="round" stroke-linejoin="round"/><path d="M26.25 17.5V7.625c0-1.375-1.125-2.5-2.5-2.5H5a2.507 2.507 0 00-2.5 2.5v11.25c0 1.375 1.125 2.5 2.5 2.5h10.375M6.25 17.625h2.5M20 8.875h2.5" stroke="currentColor" stroke-width="1.5" stroke-miterlimit="10" stroke-linecap="round" stroke-linejoin="round"/><path d="M19.25 18.75c-2.375.125-4.25 2-4.25 4.375s2 4.375 4.375 4.375c1.75 0 3.25-1 3.875-2.5" stroke="currentColor" stroke-width="1.5" stroke-miterlimit="10" stroke-linecap="round" stroke-linejoin="round"/><path d="M23.248 24.875c-2.375 0-4.375-2-4.375-4.375s2-4.375 4.375-4.375 4.375 2 4.375 4.375c-.125 2.375-2 4.375-4.375 4.375z" stroke="currentColor" stroke-width="1.5" stroke-miterlimit="10" stroke-linecap="round" stroke-linejoin="round"/></svg><svg fill="none" viewBox="0 0 20 20" id="people" xmlns="http://www.w3.org/2000/svg"><path d="M5.765 8.706a1.882 1.882 0 100-3.765 1.882 1.882 0 000 3.765zM13.763 8.706a2.353 2.353 0 100-4.706 2.353 2.353 0 000 4.706zM18.002 15.294v-.94c0-1.6-1.224-2.824-2.824-2.824h-2.823c-1.6 0-2.824 1.223-2.824 2.823v.941M6.706 11.53H4.824C3.224 11.53 2 12.753 2 14.353v.941" stroke="currentColor" stroke-width="1.5" stroke-linecap="round" stroke-linejoin="round"/></svg><svg fill="none" viewBox="0 0 38 35" id="people-2" xmlns="http://www.w3.org/2000/svg"><path d="M18.594 22.312c2.14 0 3.874-1.632 3.874-3.646 0-2.013-1.735-3.646-3.874-3.646-2.14 0-3.874 1.633-3.874 3.646 0 2.014 1.734 3.646 3.874 3.646zM27.116 13.562c2.14 0 3.874-1.632 3.874-3.646 0-2.013-1.735-3.645-3.874-3.645-2.14 0-3.874 1.632-3.874 3.645 0 2.014 1.735 3.646 3.874 3.646zM27.89 17.938c2.325 0 4.65.73 6.199 1.896M10.072 13.562c2.14 0 3.873-1.632 3.873-3.646 0-2.013-1.734-3.645-3.873-3.645-2.14 0-3.874 1.632-3.874 3.645 0 2.014 1.734 3.646 3.874 3.646zM3.1 19.834c1.549-1.167 3.873-1.896 6.197-1.896M25.721 28.875c-1.86-1.313-4.338-2.188-7.127-2.188-2.79 0-5.269.875-7.128 2.188" stroke="currentColor" stroke-width="1.5" stroke-miterlimit="10" stroke-linecap="round" stroke-linejoin="round"/></svg><svg fill="none" viewBox="0 0 21 21" id="phone" xmlns="http://www.w3.org/2000/svg"><path d="M9.09 11.784c-1.442-1.44-2.523-3.001-3.123-4.562-.12-.36-.12-.72.24-.96l.96-.96c.842-.84.842-1.92.121-2.641l-1.441-1.44C4.886.26 3.444.26 2.484 1.22l-.841.84A3.988 3.988 0 00.562 5.54c.6 3.122 2.402 6.603 5.405 9.484 2.882 2.881 6.366 4.802 9.488 5.402 1.322.24 2.523-.12 3.484-.96l.84-.84c.961-.961.961-2.401 0-3.362l-1.44-1.44c-.722-.72-1.803-.72-2.523 0l-1.081 1.08c-.24.24-.6.36-.961.24a17.76 17.76 0 01-4.684-3.36z" fill="currentColor"/></svg><svg fill="none" viewBox="0 0 35 35" id="phone-2" xmlns="http://www.w3.org/2000/svg"><path d="M14.73 20.27c-1.75-1.75-3.063-3.645-3.792-5.54-.146-.438-.146-.876.292-1.168l1.166-1.166c1.021-1.021 1.021-2.334.146-3.209l-1.75-1.75c-1.167-1.166-2.917-1.166-4.083 0l-1.021 1.02a4.847 4.847 0 00-1.313 4.23c.73 3.792 2.917 8.021 6.563 11.521 3.5 3.5 7.73 5.834 11.52 6.563 1.605.291 3.063-.146 4.23-1.313l1.02-1.02c1.167-1.167 1.167-2.917 0-4.084l-1.75-1.75c-.874-.875-2.187-.875-3.062 0l-1.312 1.312c-.292.292-.73.438-1.167.292-2.042-1.02-3.937-2.188-5.687-3.938zM24.792 16.042a6.088 6.088 0 00-1.75-4.23 5.84 5.84 0 00-4.229-1.75M30.771 16.042c0-3.063-1.167-5.98-3.5-8.313s-5.25-3.5-8.313-3.5" stroke="currentColor" stroke-width="1.5" stroke-miterlimit="10" stroke-linecap="round" stroke-linejoin="round"/></svg><svg fill="none" viewBox="0 0 20 20" id="phone-3" xmlns="http://www.w3.org/2000/svg"><path d="M8.872 11.027c-1.153-1.152-2.018-2.4-2.499-3.65-.096-.287-.096-.575.193-.767l.768-.768c.673-.673.673-1.537.096-2.113L6.277 2.576c-.768-.768-1.921-.768-2.69 0l-.673.673a3.19 3.19 0 00-.865 2.784c.48 2.497 1.922 5.282 4.324 7.587 2.307 2.305 5.093 3.841 7.591 4.322a3.232 3.232 0 002.787-.768l.672-.673c.77-.768.77-1.92 0-2.689l-1.152-1.152c-.577-.576-1.442-.576-2.018 0l-.865.864a.747.747 0 01-.769.192 14.21 14.21 0 01-3.747-2.689z" stroke="currentColor" stroke-width="1.5" stroke-miterlimit="10" stroke-linecap="round" stroke-linejoin="round"/></svg><svg viewBox="0 0 64 64" id="piggy-bank" xmlns="http://www.w3.org/2000/svg"><g fill="currentColor"><path d="M54.58 36.8l-1.44-.86c-.68-.4-1.18-1.07-1.38-1.87l-1.64-5.78 5.59-5.59c.24-.24.34-.58.27-.91s-.3-.6-.61-.73c-4.97-1.99-10.42-1.26-13.58 1.72a33.575 33.575 0 00-7.53-2.61c.5-.95.78-2.03.78-3.18 0-3.86-3.15-7-7.02-7S21 13.14 21 17c0 1.12.28 2.18.75 3.12-7.49 1.8-12.46 7.1-13.74 14.72-.22 1.36-.25 2.72-.11 4.03-1.2-.28-2.26-1.01-2.9-2.05-.8-1.3-.84-2.9-.11-4.37.25-.5.05-1.1-.44-1.34a.993.993 0 00-1.34.44c-1.06 2.11-.99 4.41.19 6.32 1.07 1.73 2.93 2.86 4.98 3.08 1.03 4 3.74 7.39 7.59 9.13l2.19 6.25c.14.4.52.67.94.67h6c.48 0 .89-.34.98-.8l.84-4.2h7.36l.84 4.2c.09.46.5.8.98.8h6c.38 0 .72-.21.89-.54l3.13-6.05c.1-.19.26-.35.47-.44l7.57-3.44c1.79-.8 2.94-2.58 2.94-4.55v-.89c0-1.76-.92-3.38-2.42-4.29zM28.02 12c2.77 0 5.02 2.24 5.02 5s-2.25 5-5.02 5S23 19.76 23 17s2.25-5 5.02-5zM55 41.98c0 1.18-.69 2.25-1.76 2.73l-7.56 3.43c-.63.28-1.14.77-1.44 1.36L41.39 55h-4.57l-.84-4.2c-.09-.46-.5-.8-.98-.8h-9c-.48 0-.89.34-.98.8l-.84 4.2h-4.47l-2.1-5.99a.963.963 0 00-.56-.59c-5.11-2.11-8.01-7.56-7.06-13.25 1.59-9.5 8.62-12.39 13.02-13.27a7.042 7.042 0 005.01 2.1c1.93 0 3.68-.78 4.95-2.05 2.97.56 5.92 1.56 8.57 2.94 0-.01 0-.01.01-.02.4.21.89.14 1.2-.21 2.19-2.47 6.39-3.32 10.4-2.23l-6.86 6.86a.996.996 0 000 1.41c.2.2.45.3.71.3s.51-.1.71-.29l.8-.8 1.33 4.67a5.027 5.027 0 002.28 3.08l1.43.86c.9.54 1.46 1.52 1.46 2.57v.89z"/><path d="M34.52 26.15c-3.6-2.2-9.45-2.2-13.04 0-.47.29-.62.9-.33 1.38.29.47.9.62 1.37.33 2.97-1.82 7.99-1.82 10.96 0 .16.09.34.14.52.14.34 0 .67-.17.85-.48a.992.992 0 00-.33-1.37z"/><circle cx="45.5" cy="36.5" r="1.5"/></g></svg><svg fill="none" viewBox="0 0 35 35" id="request" xmlns="http://www.w3.org/2000/svg"><path d="M12.785 26.932h3.646M21.827 18.91v8.75a2.925 2.925 0 01-2.916 2.917h-8.75a2.925 2.925 0 01-2.917-2.917v-17.5a2.925 2.925 0 012.917-2.916h5.25" stroke="currentColor" stroke-width="1.5" stroke-linecap="round" stroke-linejoin="round"/><path d="M19.056 10.89c-.146 0-.146.145-.146.145 0 .146.146.146.146.146.146 0 .146-.146.146-.146l-.146-.146zM22.702 10.89c-.146 0-.146.145-.146.145 0 .146.146.146.146.146.146 0 .146-.146.146-.146l-.146-.146zM26.348 10.89c-.146 0-.146.145-.146.145 0 .146.145.146.145.146.146 0 .146-.146.146-.146l-.145-.146z" stroke="currentColor" stroke-width="1.5" stroke-miterlimit="10" stroke-linecap="round" stroke-linejoin="round"/><path d="M15.556 14.682c-.584-1.167-.875-2.334-.875-3.792 0-4.375 3.646-8.02 8.02-8.02 4.375 0 8.021 3.645 8.021 8.02s-3.646 8.02-8.02 8.02c-1.313 0-2.626-.291-3.646-.874l-4.23.875.73-4.23z" stroke="currentColor" stroke-width="1.5" stroke-linecap="round" stroke-linejoin="round"/></svg><svg fill="none" viewBox="0 0 20 21" id="route" xmlns="http://www.w3.org/2000/svg"><path d="M14 11.158h2c1.1 0 2 .915 2 2.032 0 1.118-.9 2.032-2 2.032H4c-1.1 0-2 .914-2 2.032 0 1.117.9 2.032 2 2.032h4M9 11.16s4-3.252 4-6.198C13 2.83 11.2 1 9 1S5 2.727 5 4.962c0 2.946 4 6.197 4 6.197z" stroke="currentColor" stroke-width="1.5" stroke-miterlimit="10" stroke-linecap="round" stroke-linejoin="round"/><path d="M8.997 4.759c.2 0 .3.101.3.304 0 .204-.1.305-.3.305-.2 0-.3-.101-.3-.305 0-.203.1-.304.3-.304z" stroke="currentColor" stroke-width="1.5" stroke-miterlimit="10" stroke-linecap="round" stroke-linejoin="round"/></svg><svg fill="none" viewBox="0 0 30 30" id="row-view" xmlns="http://www.w3.org/2000/svg"><path clip-rule="evenodd" d="M26.245 6.245v3.5c0 1.375-1.125 2.5-2.5 2.5h-17.5a2.507 2.507 0 01-2.5-2.5v-3.5c0-1.375 1.125-2.5 2.5-2.5h17.5c1.375 0 2.5 1.125 2.5 2.5zM26.245 20.37v3.5c0 1.375-1.125 2.5-2.5 2.5h-17.5a2.507 2.507 0 01-2.5-2.5v-3.5c0-1.375 1.125-2.5 2.5-2.5h17.5c1.375 0 2.5 1 2.5 2.5z" stroke="currentColor" stroke-width="1.5" stroke-miterlimit="10" stroke-linecap="round" stroke-linejoin="round"/></svg><svg fill="none" viewBox="0 0 31 29" id="ruble" xmlns="http://www.w3.org/2000/svg"><path d="M15.594 27.625c7.702 0 13.945-5.876 13.945-13.125S23.295 1.375 15.594 1.375C7.892 1.375 1.648 7.251 1.648 14.5s6.244 13.125 13.946 13.125z" stroke="currentColor" stroke-width="1.5" stroke-miterlimit="10" stroke-linecap="round" stroke-linejoin="round"/><path d="M12.185 21.063V7.938h5.888c2.014 0 3.719 1.458 3.719 3.354 0 1.896-1.705 3.354-3.719 3.354" stroke="currentColor" stroke-width="1.5" stroke-linecap="round" stroke-linejoin="round"/><path d="M18.073 14.5H9.396M17.143 18.583H9.396" stroke="currentColor" stroke-width="1.5" stroke-miterlimit="10" stroke-linecap="round" stroke-linejoin="round"/></svg><svg fill="none" viewBox="0 0 24 25" id="search" xmlns="http://www.w3.org/2000/svg"><path d="M10 16.3a6 6 0 100-12 6 6 0 000 12zM14.2 14.6l5.8 5.9" stroke="currentColor" stroke-width="1.5" stroke-linecap="round" stroke-linejoin="round"/></svg><svg fill="none" viewBox="0 0 20 20" id="service" xmlns="http://www.w3.org/2000/svg"><path d="M11.834 5.917l3-3V2.75c-1.667-.75-3.75-.416-5.167 1-1.333 1.334-1.75 3.334-1.083 4.917l-5.667 5.667c-.75.75-.75 1.916 0 2.666s1.917.75 2.667 0l5.666-5.666c1.667.666 3.584.25 4.917-1.084 1.417-1.416 1.75-3.5 1-5.166 0-.084-.083-.084-.167 0l-3.083 3L12.834 7l-1-1.083z" stroke="currentColor" stroke-width="1.2" stroke-miterlimit="10" stroke-linecap="round" stroke-linejoin="round"/></svg><svg fill="none" viewBox="0 0 35 35" id="service-2" xmlns="http://www.w3.org/2000/svg"><path d="M20.709 10.354l5.25-5.25v-.291c-2.917-1.313-6.563-.73-9.042 1.75-2.333 2.333-3.063 5.833-1.896 8.604l-9.917 9.917c-1.312 1.312-1.312 3.354 0 4.666 1.313 1.313 3.355 1.313 4.667 0l9.917-9.916c2.917 1.166 6.27.437 8.604-1.896 2.48-2.48 3.063-6.125 1.75-9.042 0-.146-.146-.146-.292 0l-5.396 5.25-1.895-1.896-1.75-1.896z" stroke="currentColor" stroke-width="1.5" stroke-miterlimit="10" stroke-linecap="round" stroke-linejoin="round"/></svg><svg fill="none" viewBox="0 0 30 29" id="service-3" xmlns="http://www.w3.org/2000/svg"><path d="M28.2 23.02l-7.518-7.518c1.902-4.077 1.268-9.06-2.083-12.321C16.153.735 12.802-.352 9.269.1c-.362.09-.634.271-.725.634-.09.362 0 .724.182.906l4.347 4.348a.705.705 0 01.182.725l-1.178 4.53a.817.817 0 01-.543.543l-4.53 1.178a.704.704 0 01-.724-.181l-4.53-4.53c-.27-.272-.543-.362-.905-.181-.362.09-.543.362-.634.725-.725 3.533.453 7.247 2.99 9.784 2.082 2.083 4.89 3.17 7.698 3.17 1.63 0 3.17-.362 4.71-1.087l7.519 7.52c.543.543 1.177.815 1.902.815.725 0 1.45-.272 1.902-.815l1.268-1.269c.544-.543.816-1.177.816-1.902a2.81 2.81 0 00-.816-1.993zM4.468 17.224a8.913 8.913 0 01-2.627-6.342l3.17 3.171c.635.634 1.631.906 2.446.634l4.53-1.178c.905-.271 1.54-.905 1.811-1.811l1.178-4.53c.271-.906 0-1.812-.635-2.446l-2.898-2.9c2.174.182 4.257 1.088 5.797 2.628a9.023 9.023 0 010 12.774 9.02 9.02 0 01-12.772 0zm22.464 8.425l-1.268 1.268a.875.875 0 01-1.268 0l-7.247-7.247c.453-.363.997-.725 1.36-1.178.452-.453.814-.906 1.177-1.359l7.246 7.248a.822.822 0 01.272.634c0 .272-.09.453-.272.634z" fill="currentColor"/><path d="M20.41 19.76a.438.438 0 00-.634 0 .438.438 0 000 .634l4.53 4.53c.09.09.18.09.362.09.18 0 .271 0 .362-.09a.438.438 0 000-.635l-4.62-4.53zM6.099 11.425c.271.271.724.453 1.087.453.09 0 .271 0 .362-.091l2.446-.634a1.633 1.633 0 001.087-1.087l.634-2.446c.18-.544 0-1.087-.363-1.45L9.541 4.358c-.363-.362-.906-.543-1.45-.362l-2.445.634a1.633 1.633 0 00-1.087 1.087l-.634 2.446c-.181.544 0 1.087.362 1.45l1.812 1.812zm-.725-5.527c.09-.18.181-.362.453-.453l2.446-.634c.18-.09.452 0 .634.181l1.811 1.812c.181.181.181.363.181.634l-.634 2.447c-.09.18-.18.362-.453.453l-2.445.634c-.181.09-.453 0-.634-.181L4.92 8.979c-.181-.182-.181-.363-.181-.635l.634-2.446z" fill="currentColor"/><path d="M7.82 9.703c.996 0 1.811-.815 1.811-1.812 0-.996-.815-1.811-1.811-1.811-.997 0-1.812.815-1.812 1.811 0 .997.815 1.812 1.812 1.812zm0-2.717c.543 0 .906.362.906.905 0 .544-.363.906-.906.906-.544 0-.906-.362-.906-.906 0-.543.453-.905.906-.905z" fill="currentColor"/></svg><svg viewBox="0 0 32.4 32.4" id="shovel" xmlns="http://www.w3.org/2000/svg"><defs><mask id="bxa" x="-.8" y="-.8" width="34" height="34" maskUnits="userSpaceOnUse"><path fill="#fff" d="M0 0h34v34H0z" transform="translate(-.8 -.8)"/><path d="M26.16 2a1.7 1.7 0 01.76.16 14.72 14.72 0 012.58 2.37 16.34 16.34 0 012.35 2.52 1.76 1.76 0 01.15.83 1.6 1.6 0 01-.17.86 2.56 2.56 0 01-.43.59 2.84 2.84 0 01-.53.37 1.57 1.57 0 01-.88.15 1.5 1.5 0 01-.92-.17 4.83 4.83 0 01-1-.88l-10 10 1.91 1.91c1.48 1.47 1.91 1.94 1.91 2.06s-.72.88-3.49 3.63-3.68 3.6-4.11 3.88a11.54 11.54 0 01-1.24.73 11.7 11.7 0 01-1.18.51c-.28.09-.86.23-1.28.32A6.46 6.46 0 019 32a5.27 5.27 0 01-1.59-.18A8.1 8.1 0 016 31.36a11.33 11.33 0 01-1-.57 8.21 8.21 0 01-.92-.79 7.39 7.39 0 01-.86-1 8.74 8.74 0 01-.6-1 7.78 7.78 0 01-.44-1.2A5.25 5.25 0 012 25a7.18 7.18 0 01.14-1.75 8.94 8.94 0 01.34-1.21A11.18 11.18 0 013 20.91a8.68 8.68 0 01.51-.91c.14-.21.45-.61.69-.89s1.87-1.95 3.64-3.71a28.13 28.13 0 013.37-3.19c.11 0 .61.46 4 3.81l10-10-.4-.41a2.17 2.17 0 01-.54-.8 1.71 1.71 0 01-.13-.82 2.07 2.07 0 01.18-.76 2.68 2.68 0 01.42-.58 3 3 0 01.63-.42 1.81 1.81 0 01.78-.23z" fill-rule="evenodd" transform="translate(-.8 -.8)"/></mask></defs><g mask="url(#bxa)"><path d="M24.56 2.25l-.36-.49zm-.36.41l.54.27zm5.55 5.54l-.25-.54zm.39-.28l-.43-.42zm.23-.38l-.55-.25zm-5-5.57v.6zM3.67 19.12l.48.37h.05zm-.53.8l-.52-.31zm-.44.82l.54.25zm-.68 2.32l-.59-.09zm-.07 1.47h.6zm.17 1.24l-.58.15zm.27.82l-.55.23zm.43.82l.52-.3zm.8 1l.44-.41zm.89.81l.36-.48zm.89.53l.28-.53zm1.12.45l.16-.57zm1.34.21v.6zm1.46-.07l.09.59zm1.4-.33l.18.58zm1.25-.5l.26.53zm1.08-.66l-.35-.49zm3.79-3.65l-.42-.42zm3.28-3.25l.42.43.43-.43-.42-.42zM7.2 15.55l.42.43zm2.82-1h.59zm.18-.35l.42.43zm-.64.77v-.6zm.28.12l-.43.42zM24.2 1.79a2 2 0 00-.49.6l1.08.54a.58.58 0 01.08-.12l.09-.1zm-.49.6a2.06 2.06 0 00-.21.81h1.2a.83.83 0 01.07-.3zm-.21.81a1.94 1.94 0 00.19.83l1.07-.54v-.12a1.11 1.11 0 010-.17zm5 5.58a2.4 2.4 0 00.71.11V7.72H28.92zm.71.11a1.93 1.93 0 00.82-.19l-.53-1.07a1 1 0 01-.29.06zm.81-.18a2 2 0 00.57-.41l-.88-.81h-.06l-.12.08zm.55-.39a1.85 1.85 0 00.22-.29 2.23 2.23 0 00.15-.31l-1.12-.43a.66.66 0 01-.06.12v.06zm.36-.57a2 2 0 00.15-.72h-1.2v.08a.53.53 0 010 .11zm.15-.72a1.6 1.6 0 00-.05-.39 2.42 2.42 0 00-.12-.35l-1.09.5s0 .08.05.15 0 .05 0 .07zm-5-5.56l-.33-.1a1.46 1.46 0 00-.38 0l.07 1.2h.19zm-.67-.13a2.13 2.13 0 00-.58.09l.36 1.15h.22zm-.58.09a2.57 2.57 0 00-.57.3l.7 1a.85.85 0 01.14-.09h.07zM3.2 18.76a9.69 9.69 0 00-.58.85l1 .62c.14-.23.37-.57.5-.74zm-.58.85a9.83 9.83 0 00-.48.9l1.11.47c.07-.17.26-.51.4-.76zm-.42.89a10.6 10.6 0 00-.39 1l1.14.38c.1-.32.26-.75.34-.93zm-.39 1a12 12 0 00-.33 1.43l1.13.27a10.86 10.86 0 01.29-1.24zm-.33 1.44a8.33 8.33 0 00-.08 1.58l1.2-.06a6.12 6.12 0 01.02-1.26zm-.08 1.57a7.42 7.42 0 00.19 1.37l1.16-.31a7 7 0 01-.15-1.11zm.2 1.37a6.37 6.37 0 00.29.9L3 26.33c-.06-.14-.17-.49-.25-.76zm.29.91a8.5 8.5 0 00.46.88l1-.6c-.16-.26-.33-.61-.4-.75zm.46.88a7 7 0 00.85 1.2l.86-.83a6.4 6.4 0 01-.71-.93zm.85 1.19a7.61 7.61 0 001 .89l.69-1a5.33 5.33 0 01-.8-.73zm1 .89a9.05 9.05 0 001 .58l.53-1.08a7.74 7.74 0 01-.8-.47zm1 .57a6.12 6.12 0 001.24.47l.3-1.16a5.5 5.5 0 01-1-.37zm1.23.47a7.3 7.3 0 001.47.23l.06-1.2a5.94 5.94 0 01-1.21-.18zm1.47.23a8.37 8.37 0 001.58-.08l-.28-1.19a6.15 6.15 0 01-1.35.07zm1.59-.08a13.87 13.87 0 001.48-.34l-.35-1.15a11 11 0 01-1.32.31zm1.49-.35a10.41 10.41 0 001.22-.54l-.53-1.07a12.2 12.2 0 01-1.16.47zm1.34-.54a12 12 0 001.14-.7l-.69-1c-.25.18-.72.46-1 .62zm1.14-.7a14.22 14.22 0 001.19-1.15c.63-.61 1.5-1.45 2.61-2.56l-.84-.85c-1.12 1.1-2 1.94-2.6 2.54a14.78 14.78 0 01-1.12 1zm3.87-3.68l3.28-3.25-.84-.86-3.28 3.26zm3.29-4.1l-3.44-3.44-.85.85 3.44 3.43zm-6.35-6.27l-2.71-2.69-.57-.56-.14-.13-.05-.05h-.14a.65.65 0 00-.22 0v1.2a.65.65 0 01-.22 0h-.13l.12.12.56.54 2.65 2.47zm-3.87-3.58a.58.58 0 00-.21 0h-.14l-.07.05-.2.2-.7.69-2.35 2.47.85.84 2.27-2.27.7-.69.19-.19h-.08a.72.72 0 01-.21 0zm-3.67 3.41c-.89.89-1.73 1.73-2.36 2.38l-.78.81a5 5 0 00-.4.45l1 .71.07-.09.2-.19c.19-.21.45-.48.77-.8.63-.65 1.46-1.49 2.34-2.37zm3.68-.49h-.15.06l.71-1-.24-.14-.14-.06a.89.89 0 00-.24 0zm-.09 0a.43.43 0 010-.18h1.2a.82.82 0 00-.16-.47 1.33 1.33 0 00-.26-.27zm-.07-.23a.78.78 0 010-.09l.93.76a2.2 2.2 0 00.18-.28c0-.05 0-.1.07-.16a1.18 1.18 0 000-.26zm.2 0a.28.28 0 01.08.1v.05a.1.1 0 010 .08l-1.19-.08a.92.92 0 00.05.38.75.75 0 00.24.37zm.12.19v.08c0 .02 0 0 0 0l-.84-.85a1.41 1.41 0 00-.24.32 1 1 0 00-.12.45zm0 .06h-.22v-1.2a.94.94 0 00-.31.07l-.14.09a2.32 2.32 0 00-.25.21zm-1.12 1l-.06-.05.85-.85a1 1 0 00-.33-.21 1.07 1.07 0 00-.32-.08zm-.11-.06v-.11h1.2a1 1 0 00-.08-.37 1.09 1.09 0 00-.21-.32zm-.06-.16a.44.44 0 010-.15v-.06l-.25.28c-.25.28-.68.72-1.35 1.38l.85.85c.67-.66 1.11-1.11 1.39-1.42a2.93 2.93 0 00.32-.38 1.4 1.4 0 00.12-.18.79.79 0 00.09-.34zm-1.21 1.68c.66-.66 1.09-1.07 1.36-1.33a3.28 3.28 0 01.28-.23.66.66 0 01-.22 0v-1.2a.69.69 0 00-.33.09.78.78 0 00-.18.11 4.11 4.11 0 00-.37.32c-.3.27-.75.7-1.41 1.36zM25.36 1.2zm.76.16l.5-1.09zm2.58 2.37l-.85.85zm2.35 2.52l1.15-.49zm0 1.69l-1.09-.54zm-.43.59l.79.9zm-.53.37l-.54-1.07zm-1.8 0l.57-1.06zm-1-.88l.81-.82-.84-.86-.86.86zm-10 10l-.92-.82-.85.85.85.85zm1.91 1.91l-.85.85zm-1.58 5.69l.85.85zm-4.06 3.87l.69 1zm-2.42 1.24l.36 1.14zm-1.28.32l-.24-1.17zm-3.21 0l-.36 1.15zm-1.45-.49l-.52 1.08zM3.28 29.2l-.84.86zm-.86-1l-1 .68zm-.6-1l-1.09.51zM1.38 26l1.16-.3zm-.18-1.8zm.14-1.75l1.17.26zm.34-1.21l1.12.42zm.52-1.13l1 .55zm4.87-5.55l.85.85zm7.34.62l-.85.85.85.85.85-.85zm10-10l.85.85.83-.83-.82-.85zm-.4-.41l-.87.83zm-.54-.8l1.12-.41zm-.13-.82l-1.14-.08zm.18-.76l-1.07-.54zm.42-.58l-.83-.87zm.63-.42L24.08.3zm.78-.19V0zm0 1.2h.28l.95-2.2a2.86 2.86 0 00-1.22-.2zm.26 0l.33.29c.34.31.88.85 1.85 1.81l1.69-1.7c-.95-1-1.53-1.53-1.92-1.88a4 4 0 00-1-.73zm2.23 2.13c.89.89 1.44 1.44 1.77 1.8s.38.45.34.37l2.19-1a4.21 4.21 0 00-.77-1c-.37-.39-.95-1-1.84-1.86zm2.11 2.16v.34h2.4a2.94 2.94 0 00-.15-1.27zm0 .34v.2a.28.28 0 000 .05v.07l2.15 1.12a2.55 2.55 0 00.25-.68 3.54 3.54 0 00.05-.71zm-.06.35a.24.24 0 01-.06.09l-.06.08 1.66 1.74a3.74 3.74 0 00.69-.95zm-.13.19a.9.9 0 01-.17.14h-.08l1.07 2.15a4.07 4.07 0 00.79-.55zm-.32.23h-.24v2.4a4.47 4.47 0 00.74 0 2.19 2.19 0 00.71-.25zm-.3 0h-.34.05-.06L27.7 9.93a2.36 2.36 0 00.72.27 4 4 0 00.77.05zm-.38-.05l-.14-.1c-.13-.11-.31-.28-.57-.54L26.4 8.85a5.67 5.67 0 001.33 1.1zM26.4 7.2l-10 10 1.69 1.7 10-10zm-10 11.71l1.91 1.91 1.69-1.7-1.94-1.92zm1.91 1.91c.74.74 1.2 1.21 1.48 1.5s.2.24.23.27 0 0 0-.05a1 1 0 01-.12-.51h2.3a1.29 1.29 0 00-.17-.63 2 2 0 00-.17-.26c-.1-.13-.23-.28-.38-.45-.31-.33-.81-.84-1.55-1.57zm1.56 1.21a1.14 1.14 0 01.1-.46.59.59 0 01.06-.12c-.09.1-.24.27-.5.54-.52.54-1.38 1.4-2.76 2.78l1.69 1.7c1.38-1.37 2.26-2.26 2.8-2.81l.6-.66a1.89 1.89 0 00.2-.27.78.78 0 00.12-.21 1.16 1.16 0 00.12-.53zm-3.13 2.78c-1.33 1.31-2.23 2.2-2.85 2.79s-.93.85-1.06.95l1.38 2a14.58 14.58 0 001.34-1.17c.64-.61 1.55-1.51 2.88-2.83zm-3.94 3.68a10.46 10.46 0 01-1.09.65l1.07 2.15a12.9 12.9 0 001.4-.83zm-1.09.65a8.51 8.51 0 01-1 .44l.77 2.27a12.42 12.42 0 001.33-.56zm-1 .43c-.24.08-.77.21-1.16.3l.49 2.33c.45-.1 1.06-.25 1.39-.36zm-1.16.3A5.94 5.94 0 018.2 30v2.4a7.66 7.66 0 001.84-.2zM8.2 30a4.17 4.17 0 01-1.32-.15L6.3 32.2a6.54 6.54 0 001.9.2zm-1.31-.14a8.41 8.41 0 01-1.11-.39l-1 2.17a9.58 9.58 0 001.51.56zm-1.1-.38a9.06 9.06 0 01-.88-.49l-1.32 2a11.17 11.17 0 001.16.65zm-.88-.49a7.18 7.18 0 01-.77-.65l-1.69 1.73a9.16 9.16 0 001.11.92zm-.76-.64a7.79 7.79 0 01-.72-.83l-2 1.39a10.13 10.13 0 001 1.15zm-.71-.82a7.23 7.23 0 01-.51-.89l-2.16 1a11 11 0 00.69 1.2zm-.5-.87a7.18 7.18 0 01-.37-1l-2.37.59a9.48 9.48 0 00.51 1.42zm-.38-1a2.26 2.26 0 01-.1-.5 8.63 8.63 0 010-.93L0 24.2v1.14a5.35 5.35 0 00.18.92zM2.4 24.2a5.64 5.64 0 01.11-1.49L.2 22.2a8.22 8.22 0 00-.2 2zm.12-1.51a9 9 0 01.28-1l-2.25-.83A10.41 10.41 0 00.2 22.2zm.29-1.06a9.14 9.14 0 01.43-1L1.1 19.56a12.58 12.58 0 00-.56 1.31zm.44-1a9 9 0 01.46-.81l-2-1.33a10.55 10.55 0 00-.62 1.1zm.46-.81c.1-.15.38-.51.61-.78l-1.84-1.55c-.25.3-.59.73-.77 1zm.61-.78l.08-.08.25-.27.82-.84 2.39-2.4-1.66-1.74c-1.75 1.73-3.44 3.49-3.72 3.78zm3.57-3.63c1.24-1.23 2-2 2.54-2.5.26-.24.42-.39.52-.47l-.11.06a1.11 1.11 0 01-.47.1v-2.4a1.33 1.33 0 00-.54.12l-.2.11-.26.2q-.24.19-.63.57c-.53.5-1.35 1.31-2.58 2.54zm2.52-2.84a1.17 1.17 0 01-.57-.15c.08.06.23.2.51.47.54.52 1.5 1.46 3.18 3.14l1.7-1.7c-1.68-1.67-2.66-2.64-3.23-3.18-.28-.27-.48-.46-.63-.58l-.27-.2a1.32 1.32 0 00-.69-.2zm4.79 3.46l10-10-1.7-1.7-10 10zm10-11.69l-.4-.42-1.6 1.68.4.41zm-.4-.41a1.21 1.21 0 01-.28-.38l-2.25.83a3.46 3.46 0 00.8 1.21zm-.28-.39l-.05-.14v-.2l-2.27-.13a3.13 3.13 0 000 .68 2.84 2.84 0 00.17.64zm.02-.34a1 1 0 01.06-.31l-2.16-1a3.2 3.2 0 00-.24 1.18zm.06-.3l.06-.09.07-.09-1.69-1.7a3.81 3.81 0 00-.64.89zm.16-.24l.1-.07a.94.94 0 01.2-.12l-1-2.16a4.42 4.42 0 00-.94.63zm.31-.2l.13-.05h.16L25.33 0a2.9 2.9 0 00-1.25.29zm.28-.07V0z" fill="currentColor"/></g><path d="M25.36 1.2a1.7 1.7 0 01.76.16 14.72 14.72 0 012.58 2.37 16.34 16.34 0 012.35 2.52 1.76 1.76 0 01.15.83 1.6 1.6 0 01-.17.86 2.56 2.56 0 01-.43.59 2.84 2.84 0 01-.53.37 1.57 1.57 0 01-.88.15 1.5 1.5 0 01-.92-.17 4.83 4.83 0 01-1-.88l-10 10 1.91 1.91c1.48 1.47 1.91 1.94 1.91 2.06s-.72.88-3.49 3.63-3.68 3.6-4.11 3.88a11.54 11.54 0 01-1.24.73 11.7 11.7 0 01-1.18.51c-.28.09-.86.23-1.28.32a6.46 6.46 0 01-1.59.16 5.27 5.27 0 01-1.59-.18 8.1 8.1 0 01-1.41-.46 11.33 11.33 0 01-1-.57 8.21 8.21 0 01-.92-.79 7.39 7.39 0 01-.86-1 8.74 8.74 0 01-.6-1 7.78 7.78 0 01-.44-1.2 5.25 5.25 0 01-.18-1.8 7.18 7.18 0 01.14-1.75 8.94 8.94 0 01.34-1.21 11.18 11.18 0 01.52-1.13 8.68 8.68 0 01.51-.91c.14-.21.45-.61.69-.89s1.87-1.95 3.64-3.71a28.13 28.13 0 013.37-3.19c.11 0 .61.46 4 3.81l10-10-.4-.41a2.17 2.17 0 01-.54-.8 1.71 1.71 0 01-.13-.82 2.07 2.07 0 01.18-.76 2.68 2.68 0 01.42-.58 3 3 0 01.63-.42 1.81 1.81 0 01.78-.23zm-.8 1a1.49 1.49 0 00-.33.41 1.33 1.33 0 00-.13.59 1.4 1.4 0 00.12.56c.07.13 1.07 1.17 2.22 2.32s2.17 2.12 2.26 2.17a1.67 1.67 0 00.5.07 1.39 1.39 0 00.55-.12 1.5 1.5 0 00.39-.28 1.39 1.39 0 00.33-.86 1.3 1.3 0 00-.12-.49 24.34 24.34 0 00-2.21-2.37 22.88 22.88 0 00-2.34-2.14 1.19 1.19 0 00-.44-.09 1.76 1.76 0 00-.4.06 2 2 0 00-.4.22zm-7.31 11.2l1.76 1.8 7.7-7.69-1.75-1.8zM3.67 19.12c-.14.19-.39.56-.53.8a8.49 8.49 0 00-.44.82c-.1.21-.26.66-.37 1a11.33 11.33 0 00-.31 1.33 8 8 0 00-.07 1.47 7.91 7.91 0 00.17 1.24c.08.28.2.65.27.82s.27.55.43.82a6.45 6.45 0 00.8 1 6.73 6.73 0 00.89.81 8 8 0 00.89.53 5.75 5.75 0 001.12.44 6.6 6.6 0 001.34.21 7.94 7.94 0 001.46-.07 12.42 12.42 0 001.4-.33 13 13 0 001.25-.5c.31-.17.8-.46 1.08-.66s1.56-1.4 3.79-3.62l3.28-3.25-3.44-3.44c-4.82 4.79-5.2 5.15-5.48 5.25a2.26 2.26 0 01-.79.12 1.56 1.56 0 01-.8-.16 2.58 2.58 0 01-.57-.41 2.1 2.1 0 01-.42-.57 1.68 1.68 0 01-.15-.8 2.07 2.07 0 01.11-.77c.11-.27.46-.66 2.69-2.89l2.58-2.58c-2.65-2.63-3.43-3.4-3.45-3.4s-1.48 1.44-3.2 3.22-3.34 3.38-3.48 3.57zm5.6 2.45a1.83 1.83 0 00-.07.38 1.83 1.83 0 00.07.38 1.41 1.41 0 00.31.48 1.35 1.35 0 00.51.31 1.26 1.26 0 00.54 0 1.8 1.8 0 00.41-.13c.09 0 1.79-1.71 3.79-3.71l3.63-3.63c-1.33-1.33-1.73-1.71-1.75-1.71s-1.69 1.65-3.7 3.67c-3.15 3.18-3.69 3.74-3.74 3.96zm1.14-7.53a.62.62 0 01.26.13.4.4 0 01.18.25.64.64 0 01-.16.32.43.43 0 01-.35.19.45.45 0 01-.28-.1.32.32 0 01-.09-.26.65.65 0 01.23-.37.66.66 0 01.21-.16zm-.9.95a.5.5 0 01.28.12.39.39 0 01.11.26c0 .12-.41.57-1.74 1.9C6.6 18.83 6.4 19 6.2 19a.26.26 0 01-.27-.14.56.56 0 010-.31 20.78 20.78 0 011.72-1.85c1.32-1.32 1.74-1.71 1.86-1.71z" fill="currentColor" fill-rule="evenodd"/></svg><svg fill="none" viewBox="0 0 21 20" id="shower" xmlns="http://www.w3.org/2000/svg"><path d="M11.72 7.623c0-.243.247-.487.495-.487.247 0 .495.244.495.487v3c0 .244-.248.487-.495.487-.248 0-.495-.243-.495-.486V7.623zM4.95 17.111V3.001c0-.568.248-1.136.66-1.46.413-.406.908-.649 1.486-.649s1.156.243 1.486.649c.33.324.578.81.66 1.297l-3.054 3c-.082.082-.165.244-.165.325 0 .244.248.487.495.487h6.439c.165 0 .247-.081.33-.162a.487.487 0 000-.65l-3.054-3c-.083-.73-.413-1.46-.908-1.946C8.748.324 8.006 0 7.097 0c-.825 0-1.65.324-2.228.892-.578.568-.908 1.298-.908 2.19v14.11c0 .244.247.487.495.487.248-.081.495-.324.495-.568zm-3.136 2.757c-.413 0-.826-.324-.826-.81 0-.487.33-.811.826-.811h17.828c.413 0 .826.324.826.81a.82.82 0 01-.826.811H1.815zM9.739 3.73l2.063 2.028H7.675L9.739 3.73zM6.602 7.623c0-.243.248-.487.495-.487.248 0 .495.244.495.487v3c0 .244-.247.487-.495.487-.247 0-.495-.243-.495-.486V7.623zm2.559 1.298c0-.244.247-.487.495-.487s.495.243.495.487v3c0 .243-.247.487-.495.487s-.495-.244-.495-.487v-3z" fill="currentColor"/></svg><svg fill="none" viewBox="0 0 24 24" id="skype" xmlns="http://www.w3.org/2000/svg"><path d="M24 12c0 6.628-5.372 12-12 12S0 18.628 0 12 5.372 0 12 0s12 5.372 12 12z" fill="currentColor"/><path d="M18.768 13.2a6.609 6.609 0 00.135-1.939c-.26-3.455-3.187-6.18-6.758-6.18-.394 0-.782.034-1.159.097a3.944 3.944 0 00-2.09-.596c-2.173 0-3.931 1.735-3.931 3.877 0 .716.197 1.384.54 1.96a6.979 6.979 0 00-.137 1.343c0 3.693 3.035 6.686 6.78 6.686.423 0 .839-.039 1.242-.112a3.96 3.96 0 001.859.459c2.172 0 3.933-1.735 3.933-3.877a3.899 3.899 0 00-.413-1.718zm-3.146 1.76c-.313.438-.778.784-1.378 1.03-.595.245-1.306.37-2.116.37-.975 0-1.79-.17-2.43-.502a3.157 3.157 0 01-1.115-.977c-.287-.409-.433-.816-.433-1.208 0-.244.097-.456.283-.63.184-.173.422-.259.707-.259.233 0 .432.069.597.204.157.13.292.323.399.574.12.272.253.5.39.68.133.174.325.32.567.434.247.113.579.173.986.173.561 0 1.02-.118 1.364-.351.339-.227.502-.5.502-.833a.818.818 0 00-.262-.635 1.89 1.89 0 00-.724-.394 14.41 14.41 0 00-1.244-.304 10.1 10.1 0 01-1.776-.523c-.486-.205-.878-.486-1.163-.84a1.794 1.794 0 01-.234-.374 2.215 2.215 0 01-.206-.966c0-.506.155-.96.461-1.352.302-.39.745-.694 1.315-.9.564-.205 1.232-.31 1.99-.31.607 0 1.138.07 1.581.205.448.138.823.324 1.12.551.298.23.521.476.66.73.142.258.212.515.212.763a.91.91 0 01-.278.647.937.937 0 01-.696.287c-.251 0-.448-.06-.585-.178-.127-.111-.26-.285-.405-.533a2.241 2.241 0 00-.608-.741c-.23-.172-.609-.257-1.133-.257-.485 0-.88.096-1.174.287-.283.182-.42.392-.42.64 0 .152.045.279.135.39.096.116.231.218.402.304.178.088.362.159.547.208l.117.032c.193.05.467.116.82.195a15.58 15.58 0 011.498.388 4.87 4.87 0 011.161.522c.326.208.583.476.765.795.182.321.276.718.276 1.178 0 .538-.16 1.041-.475 1.48z" fill="#fff"/></svg><svg viewBox="0 0 512.737 512.737" id="snap" xmlns="http://www.w3.org/2000/svg"><path d="M379.323 209.665a13.982 13.982 0 01-1.346-7.234l7.221-87.271c.812-9.822-2.825-19.343-9.979-26.122-7.152-6.779-16.863-9.898-26.619-8.562a60.585 60.585 0 00-21.365 7.175 39.58 39.58 0 00-1.628-2.1c-13.591-16.215-37.837-18.352-54.05-4.767l-58.731 49.153v-10.996c0-.82.244-1.61.707-2.287l12.181-17.825a7.5 7.5 0 00-1.961-10.424 7.498 7.498 0 00-10.424 1.961l-12.181 17.825a18.977 18.977 0 00-3.322 10.75v23.55l-46.74 39.118v-70.641a39.825 39.825 0 016.973-22.562l42.898-62.78c3.522-5.154 8.84-8.628 14.975-9.782s12.351.149 17.506 3.672a23.214 23.214 0 019.782 14.975 23.214 23.214 0 01-3.671 17.505l-7.871 11.52a7.5 7.5 0 0012.384 8.463l7.871-11.52c5.782-8.462 7.923-18.669 6.028-28.741S250.362 12.913 241.9 7.131c-8.461-5.782-18.668-7.923-28.742-6.028-10.072 1.895-18.804 7.599-24.586 16.061l-42.898 62.78a54.777 54.777 0 00-9.588 31.025v83.195l-22.494 18.825c-16.167 13.531-24.832 34.157-23.179 55.174l4.775 60.706a7.499 7.499 0 008.065 6.889 7.5 7.5 0 006.889-8.064l-4.775-60.706c-1.273-16.188 5.401-32.074 17.853-42.495L281.188 92.285c9.876-8.277 24.646-6.975 32.923 2.901 8.276 9.877 6.975 24.646-2.902 32.923L228.98 197.02c-5.108 1.235-9.998 3.692-14.236 7.379l-40.192 34.984a7.5 7.5 0 009.849 11.314l40.192-34.984c6.99-6.087 17.189-6.145 24.25-.139l60.788 51.705a23.217 23.217 0 018.152 15.921 23.209 23.209 0 01-5.493 17.022 23.371 23.371 0 01-11.198 7.254l-42.53-36.175c-12.756-10.851-31.184-10.745-43.817.25l-40.192 34.984a7.5 7.5 0 009.849 11.314l40.192-34.984c6.99-6.086 17.189-6.146 24.25-.139l60.788 51.705a23.217 23.217 0 018.152 15.921 23.209 23.209 0 01-5.493 17.022 23.212 23.212 0 01-15.92 8.152c-6.231.501-12.269-1.449-17.022-5.493l-37.628-32.006a7.5 7.5 0 00-10.163.409l-11.167 11.167a7.5 7.5 0 0010.606 10.607l6.275-6.275 32.357 27.523c7.001 5.956 15.706 9.146 24.798 9.146 1.045 0 2.097-.043 3.15-.128 10.215-.824 19.498-5.578 26.139-13.385s9.844-17.732 9.019-27.948c-.824-10.216-5.578-19.499-13.385-26.14l-5.591-4.755a38.37 38.37 0 009.957-8.31c13.708-16.115 11.75-40.379-4.366-54.088l-26.951-22.924 16.289-83.137 12.157-10.188c7.855-6.582 12.677-15.83 13.577-26.04a38.447 38.447 0 00-.877-12.211c5.222-3.115 11.047-5.188 17.094-6.016a17.23 17.23 0 0114.265 4.588 17.238 17.238 0 015.347 13.998l-7.221 87.271a28.992 28.992 0 002.791 15l13.355 27.621c16.827 34.803 17.396 74.989 1.561 110.255l-8.587 19.124a7.5 7.5 0 006.838 10.574 7.502 7.502 0 006.846-4.43l8.587-19.124c17.656-39.319 17.021-84.125-1.74-122.929zm-100.028 12.121l-20.735-17.637a34.019 34.019 0 00-8.442-5.275l40.279-33.754zm89.606 176.948a7.499 7.499 0 00-9.914 3.77l-19.208 42.775a7.496 7.496 0 00-.658 3.072v56.886c0 4.143 3.357 7.5 7.5 7.5s7.5-3.357 7.5-7.5v-55.279l18.55-41.31a7.5 7.5 0 00-3.77-9.914zm-43.543-352.06c4.143 0 7.5-3.357 7.5-7.5V7.5c0-4.143-3.357-7.5-7.5-7.5s-7.5 3.357-7.5 7.5v31.674a7.5 7.5 0 007.5 7.5zm32.018 7.46a7.5 7.5 0 0010.203-2.904l15.411-27.672a7.501 7.501 0 00-13.105-7.299l-15.411 27.672a7.501 7.501 0 002.902 10.203zm64.022-2.48a7.5 7.5 0 00-10.325-2.427l-26.928 16.677a7.5 7.5 0 007.898 12.752l26.928-16.677a7.498 7.498 0 002.427-10.325zM134.505 410.592a103.958 103.958 0 01-21.722-51.292c-.536-4.106-4.295-6.994-8.407-6.468a7.5 7.5 0 00-6.467 8.407 118.949 118.949 0 0024.858 58.692l30.944 38.889v45.929c0 4.143 3.358 7.5 7.5 7.5s7.5-3.357 7.5-7.5V456.2a7.501 7.501 0 00-1.631-4.67z" fill="currentColor"/></svg><svg fill="none" viewBox="0 0 13 12" id="star" xmlns="http://www.w3.org/2000/svg"><path d="M6.5 0l1.872 3.923 4.31.568-3.153 2.993.792 4.275L6.5 9.685l-3.82 2.074.79-4.275L.319 4.491l4.31-.568L6.5 0z" fill="currentColor"/></svg><svg fill="none" viewBox="0 0 21 18" id="tap" xmlns="http://www.w3.org/2000/svg"><path d="M16.458 2.844a.504.504 0 01-.469.469.504.504 0 01-.469-.469c0-.468-.234-.937-.546-1.327A1.885 1.885 0 0013.645.97h-.39c-.547 0-.938.235-1.328.547-.313.312-.547.78-.547 1.327v4.608h1.484V6.28c0-.39.313-.78.781-.78.391 0 .782.312.782.78v1.172h5.781c.39 0 .781.312.781.78 0 .391-.312.781-.781.781h-.469c-.156 1.484-1.172 2.89-2.578 3.905a10.504 10.504 0 01-5.39 1.718v2.499c0 .39-.313.78-.782.78a.783.783 0 01-.781-.78v-2.343-.156c-2.11-.156-3.984-.781-5.39-1.718-1.485-1.015-2.422-2.343-2.579-3.905h-.468a.783.783 0 01-.782-.78c0-.39.313-.781.782-.781h5.78V6.28c0-.39.313-.78.782-.78.39 0 .781.312.781.78v1.172H10.6V2.844c0-.78.312-1.483.78-1.952.47-.468 1.173-.78 1.954-.78h.39c.782 0 1.485.312 1.954.78.468.547.781 1.25.781 1.952zm2.422 6.17H3.177c.156 1.17 1.015 2.264 2.187 3.123 1.407 1.015 3.438 1.562 5.625 1.562 2.188 0 4.219-.625 5.625-1.562 1.25-.859 2.11-1.952 2.266-3.124z" fill="currentColor"/></svg><svg viewBox="0 0 24 24" id="telegramm" xmlns="http://www.w3.org/2000/svg"><circle cx="12" cy="12" r="12"/><path d="M5.61 12.225l2.76 1.028 1.075 3.46c.047.234.327.281.514.14l1.543-1.262c.14-.14.374-.14.561 0l2.76 2.01c.186.141.467.048.514-.186l2.057-9.82c.047-.234-.187-.467-.42-.374L5.61 11.617c-.28.093-.28.514 0 .607zm3.695.514l5.424-3.32c.093-.047.187.093.093.14l-4.442 4.162c-.14.14-.28.327-.28.56l-.14 1.123c0 .14-.235.187-.281 0l-.562-2.057c-.14-.234-.046-.515.188-.608z" fill="#fff"/></svg><svg fill="none" viewBox="0 0 31 31" id="telegramm-2" xmlns="http://www.w3.org/2000/svg"><circle cx="15.633" cy="15.205" r="15.205" fill="currentColor"/><path d="M7.537 15.49l3.496 1.304 1.362 4.384c.06.296.415.356.652.178l1.955-1.6c.178-.178.474-.178.711 0l3.496 2.548c.237.178.593.06.652-.237l2.607-12.443c.06-.296-.237-.592-.533-.474L7.537 14.72c-.356.118-.356.652 0 .77zm4.68.652l6.874-4.207c.118-.06.237.119.118.178l-5.629 5.273c-.177.178-.355.415-.355.711l-.178 1.422c0 .178-.296.237-.355 0l-.711-2.607c-.178-.296-.06-.652.237-.77z" fill="#fff"/></svg><svg fill="none" viewBox="0 0 18 18" id="thickness" xmlns="http://www.w3.org/2000/svg"><path d="M3.75 5.25v7.5M14.25 12.75v-7.5" stroke="currentColor" stroke-linecap="round" stroke-linejoin="round"/><path d="M15 15.75h-1.5c-.45 0-.75-.3-.75-.75v-1.5c0-.45.3-.75.75-.75H15c.45 0 .75.3.75.75V15c0 .45-.3.75-.75.75zM4.5 15.75H3c-.45 0-.75-.3-.75-.75v-1.5c0-.45.3-.75.75-.75h1.5c.45 0 .75.3.75.75V15c0 .45-.3.75-.75.75zM15 5.25h-1.5c-.45 0-.75-.3-.75-.75V3c0-.45.3-.75.75-.75H15c.45 0 .75.3.75.75v1.5c0 .45-.3.75-.75.75zM4.5 5.25H3c-.45 0-.75-.3-.75-.75V3c0-.45.3-.75.75-.75h1.5c.45 0 .75.3.75.75v1.5c0 .45-.3.75-.75.75z" stroke="currentColor" stroke-miterlimit="10" stroke-linecap="round" stroke-linejoin="round"/><path d="M5.25 14.25h7.5M12.75 3.75h-7.5" stroke="currentColor" stroke-linecap="round" stroke-linejoin="round"/></svg><svg fill="none" viewBox="0 0 29 31" id="toilet" xmlns="http://www.w3.org/2000/svg"><path d="M1.203 16.864A1.224 1.224 0 010 15.624c0-.62.481-1.24 1.203-1.24h26.594c.601 0 1.203.496 1.203 1.24 0 .62-.481 1.24-1.203 1.24h-.722a9.183 9.183 0 01-2.527 5.332c-1.685 1.736-3.85 2.728-6.378 2.728h-1.324l-1.082 5.456c-.12.372-.361.62-.723.62H5.896c-.36 0-.722-.372-.722-.744v-7.564c-.962-.868-1.684-1.86-2.286-2.976-.361-.868-.722-1.86-.842-2.852h-.843zM3.851 0h4.693c.601 0 1.083.248 1.444.62.36.372.601.868.601 1.364v9.176c0 .62-.24 1.116-.601 1.488-.361.372-.843.62-1.444.62H3.85a1.964 1.964 0 01-1.444-.62 2.085 2.085 0 01-.602-1.488V1.984c0-.62.24-1.116.602-1.488C2.767.248 3.249 0 3.85 0zm4.693 1.488H3.85c-.12 0-.361.124-.361.124-.12.124-.12.248-.12.372v9.176c0 .124.12.372.12.372.12.124.24.124.36.124h4.694c.12 0 .36-.124.36-.124.12-.124.12-.248.12-.372V1.984c0-.124 0-.248-.12-.372-.12 0-.24-.124-.36-.124zM25.51 16.864H3.37c.12.744.36 1.488.721 2.108.482.992 1.204 1.984 2.046 2.728.24.124.36.372.36.62v7.192h7.943l1.083-5.456c0-.372.36-.62.722-.62h1.925a7.445 7.445 0 005.295-2.232c1.083-1.24 1.805-2.728 2.045-4.34z" fill="currentColor"/></svg><svg fill="none" viewBox="0 0 24 24" id="viber" xmlns="http://www.w3.org/2000/svg"><path d="M24 12c0 6.628-5.372 12-12 12S0 18.628 0 12 5.372 0 12 0s12 5.372 12 12z" fill="currentColor"/><path d="M12.433 5.505c3.541.536 5.176 2.185 5.625 5.683.005.026.005.052.007.08.02.317-.052.73.381.739.375.006.394-.27.386-.547-.005-.085-.009-.169-.009-.246.04-3.295-2.887-6.347-6.291-6.46-.257.036-.789-.174-.82.39-.018.38.428.318.721.361z" fill="#fff"/><path d="M13.127 6.465c-.34-.04-.79-.197-.87.266-.083.486.418.437.74.507 2.186.48 2.949 1.26 3.309 3.387.015.09.017.195.026.296.021.246.079.473.46.417.197-.03.26-.145.28-.285.02-.141-.008-.308.01-.43.014-2.042-1.77-3.9-3.955-4.158z" fill="#fff"/><path d="M13.33 8.134c-.228.006-.453.03-.537.267-.124.356.138.442.408.482.897.142 1.368.66 1.458 1.536.011.112.054.214.118.287.07.084.171.131.296.116a.396.396 0 00.178-.062c.156-.105.173-.321.167-.53.017-.98-1.12-2.12-2.089-2.096zM17.866 15.03c-.442-.35-.915-.663-1.38-.984-.927-.638-1.776-.688-2.468.338-.387.577-.931.602-1.501.35-1.568-.697-2.78-1.772-3.49-3.336a2.02 2.02 0 01-.195-.704c-.023-.41.146-.78.62-1.095.39-.26.78-.563.75-1.129-.041-.737-1.867-3.2-2.586-3.457a1.35 1.35 0 00-.9-.002c-1.69.557-2.39 1.919-1.72 3.532.373.895.797 1.74 1.272 2.536 2.085 3.479 5.15 6.009 9.091 7.673.277.116.583.163.74.206 1.103.01 2.394-1.03 2.767-2.065.36-.994-.4-1.388-1-1.864z" fill="#fff"/></svg><svg fill="none" viewBox="0 0 31 31" id="vk" xmlns="http://www.w3.org/2000/svg"><circle cx="15.205" cy="15.205" r="15.205" fill="currentColor"/><path d="M22.66 19.094c0-.063-.062-.063-.062-.126-.253-.505-.821-1.136-1.578-1.83-.38-.316-.569-.568-.695-.695-.19-.252-.19-.442-.126-.694.063-.19.316-.505.757-1.073.253-.316.38-.505.569-.694.946-1.263 1.388-2.083 1.262-2.462l-.063-.063c-.063-.063-.127-.126-.253-.126-.126-.063-.315-.063-.505 0H19.126l-.063.063c-.063.063-.063.063-.063.126-.253.694-.568 1.262-.884 1.894-.19.315-.379.63-.568.883-.19.253-.316.442-.442.568-.126.127-.252.19-.316.316-.063.063-.189.126-.189.063-.063 0-.126 0-.126-.063l-.19-.19c-.063-.063-.063-.189-.126-.315v-.316-.378-.38-.693-.568-.442-.379c0-.063-.063-.19-.063-.252l-.19-.19c-.062-.063-.189-.063-.252-.126a5.663 5.663 0 00-1.136-.126c-1.01 0-1.704.063-1.957.189-.126.063-.252.126-.315.252-.126.127-.126.19-.063.19.315.063.568.19.694.379l.063.126c.063.063.063.19.127.379.063.189.063.378.063.63v1.01c0 .316-.064.506-.064.695 0 .19-.063.316-.126.379-.063.126-.063.19-.126.19 0 0 0 .062-.063.062s-.126.063-.253.063a.479.479 0 01-.252-.126.761.761 0 01-.316-.316 2.204 2.204 0 01-.378-.568c-.127-.252-.316-.505-.442-.883l-.127-.253a8.952 8.952 0 01-.315-.694c-.126-.316-.253-.568-.379-.884a.87.87 0 00-.19-.252h-.062s-.063-.063-.127-.063c-.063 0-.126-.063-.189-.063H7.45c-.253 0-.379.063-.442.126l-.063.063v.126c0 .063 0 .126.063.253.316.757.694 1.514 1.073 2.272.379.694.757 1.325 1.01 1.767.316.442.568.884.884 1.263.315.378.505.63.568.757l.252.253.19.189c.126.126.315.316.568.505.252.19.568.379.883.568.316.19.695.316 1.073.442.442.126.82.19 1.2.126h.946c.19 0 .316-.063.442-.19l.063-.062c0-.064.064-.064.064-.127v-.252c0-.253 0-.442.063-.631.063-.19.063-.316.126-.442s.126-.19.19-.253l.125-.126h.064c.126-.063.315 0 .441.126.19.127.38.316.505.505.127.19.316.379.568.631.253.253.442.442.569.505l.189.127c.126.063.252.126.442.189.189.063.315.063.442.063l2.146-.063c.189 0 .378-.063.505-.126.126-.063.189-.126.189-.253v-.252c-.126-.126-.126-.19-.126-.253z" fill="#fff"/></svg><svg fill="none" viewBox="0 0 18 18" id="weight" xmlns="http://www.w3.org/2000/svg"><path d="M3.75 5.25v7.5M14.25 12.75v-7.5" stroke="currentColor" stroke-linecap="round" stroke-linejoin="round"/><path d="M15 15.75h-1.5c-.45 0-.75-.3-.75-.75v-1.5c0-.45.3-.75.75-.75H15c.45 0 .75.3.75.75V15c0 .45-.3.75-.75.75zM4.5 15.75H3c-.45 0-.75-.3-.75-.75v-1.5c0-.45.3-.75.75-.75h1.5c.45 0 .75.3.75.75V15c0 .45-.3.75-.75.75zM15 5.25h-1.5c-.45 0-.75-.3-.75-.75V3c0-.45.3-.75.75-.75H15c.45 0 .75.3.75.75v1.5c0 .45-.3.75-.75.75zM4.5 5.25H3c-.45 0-.75-.3-.75-.75V3c0-.45.3-.75.75-.75h1.5c.45 0 .75.3.75.75v1.5c0 .45-.3.75-.75.75z" stroke="currentColor" stroke-miterlimit="10" stroke-linecap="round" stroke-linejoin="round"/><path d="M5.25 14.25h7.5M12.75 3.75h-7.5" stroke="currentColor" stroke-linecap="round" stroke-linejoin="round"/><path d="M18 0H0v18h18V0z" fill="#fff"/><path fill-rule="evenodd" clip-rule="evenodd" d="M3 11.625v-5.25c0-.525.3-1.05.75-1.275l4.5-2.625c.45-.3 1.05-.3 1.5 0l4.5 2.625c.45.3.75.75.75 1.275v5.25c0 .525-.3 1.05-.75 1.275l-4.5 2.625c-.45.3-1.05.3-1.5 0L3.75 12.9c-.45-.225-.75-.75-.75-1.275z" fill="#fff" stroke="currentColor" stroke-miterlimit="10" stroke-linecap="round" stroke-linejoin="round"/><path d="M9 15.75V9M9 9l5.85-3.375M3.225 5.625L9 9" stroke="currentColor" stroke-miterlimit="10" stroke-linecap="round" stroke-linejoin="round"/></svg><svg viewBox="0 0 24 24" id="whatsapp" xmlns="http://www.w3.org/2000/svg"><circle cx="12" cy="12" r="12"/><path d="M16.756 7.237A6.257 6.257 0 0012.322 5.4c-3.468 0-6.278 2.8-6.278 6.256 0 1.094.307 2.188.834 3.106L6 18l3.337-.875a6.42 6.42 0 002.985.744c3.468 0 6.278-2.8 6.278-6.256-.044-1.62-.659-3.194-1.844-4.376zm-1.405 6.65c-.132.35-.746.7-1.053.744a2.461 2.461 0 01-.966-.043c-.22-.088-.527-.175-.878-.35-1.58-.657-2.59-2.232-2.678-2.363-.088-.088-.659-.831-.659-1.619 0-.787.395-1.137.527-1.312.132-.175.307-.175.439-.175h.307c.088 0 .22-.044.351.262.132.306.44 1.094.483 1.138a.278.278 0 010 .262.915.915 0 01-.175.263c-.088.087-.176.218-.22.262-.088.088-.175.175-.088.306.088.175.396.657.879 1.094.614.525 1.097.7 1.273.788.175.087.263.043.35-.044.089-.088.396-.438.484-.612.088-.175.22-.132.351-.088.132.044.922.438 1.054.525.175.087.263.131.307.175.044.131.044.438-.088.787z" fill="#fff"/></svg><svg fill="none" viewBox="0 0 31 31" id="youtube" xmlns="http://www.w3.org/2000/svg"><circle cx="15.419" cy="15.205" r="15.205" fill="currentColor"/><path d="M22.163 14.203c0-.295-.049-.64-.049-1.032a68.18 68.18 0 00-.147-1.131c-.099-.393-.246-.688-.541-.934a1.66 1.66 0 00-.934-.442c-1.13-.148-2.801-.197-5.062-.197-2.26 0-3.981.05-5.062.197a1.66 1.66 0 00-.934.442c-.246.246-.443.54-.54.934a3.94 3.94 0 00-.148 1.13 7.98 7.98 0 00-.05 1.033v2.26c0 .295.05.64.05 1.033.049.393.098.786.147 1.13.098.393.246.688.54.934.247.245.59.393.935.442 1.13.148 2.801.197 5.062.197 2.26 0 3.981-.05 5.062-.197a1.66 1.66 0 00.934-.442 1.96 1.96 0 00.54-.934 3.94 3.94 0 00.148-1.13c.05-.394.05-.738.05-1.033v-1.13-1.13zm-4.128 1.523l-3.883 2.408a.375.375 0 01-.246.099c-.098 0-.147 0-.245-.05a.516.516 0 01-.246-.442v-4.865c0-.197.098-.345.246-.443a.446.446 0 01.491 0l3.883 2.409c.147.098.245.245.245.393 0 .147-.098.393-.245.491z" fill="#fff"/></svg></svg>